<svg width="111" height="40" viewBox="0 0 111 40" fill="none" xmlns="http://www.w3.org/2000/svg">
<g clip-path="url(#clip0_769_85)">
<path d="M12.2792 5H0.083374V34.1667L12.2792 5Z" fill="#FA0C00"/>
<path d="M20.8601 5H33.04V34.1667L20.8601 5Z" fill="#FA0C00"/>
<path d="M16.5698 15.7499L24.3322 34.1667H19.2394L16.9194 28.3032H11.2385L16.5698 15.7499Z" fill="#FA0C00"/>
<path d="M52.9364 23.5482L54.3745 27.6717C54.4221 27.775 54.4936 27.8227 54.6207 27.8227H57.3856C57.5366 27.8227 57.5605 27.7512 57.5366 27.6002L51.824 11.7337C51.8002 11.6066 51.7764 11.5828 51.6492 11.5828H48.217C48.1216 11.5828 48.066 11.6543 48.066 11.7575C48.0183 12.5918 47.9468 12.846 47.8435 13.0923L42.7506 27.5763C42.7268 27.7512 42.7825 27.8227 42.9255 27.8227H45.3964C45.5474 27.8227 45.6189 27.775 45.6745 27.624L47.0331 23.5482H52.9364ZM47.8197 20.8548C48.5666 18.5983 49.5517 15.7063 49.949 14.0537H49.9728C50.4654 15.7858 51.6254 19.218 52.1498 20.8548H47.8197Z" fill="#FA0C00"/>
<path d="M64.8806 28.069C66.3664 28.069 67.9475 27.7988 69.5524 27.1076C69.6796 27.06 69.7034 27.0043 69.7034 26.8851C69.6556 26.4402 69.6 25.7966 69.6 25.304V10.3671C69.6 10.2718 69.6001 10.2241 69.4809 10.2241H66.7875C66.6842 10.2241 66.6366 10.2718 66.6366 10.399V15.46C66.2154 15.4123 65.9215 15.3885 65.5719 15.3885C61.2259 15.3885 58.5563 18.2567 58.5563 21.84C58.5563 25.9953 61.2974 28.069 64.8806 28.069ZM66.6366 25.304C66.1916 25.447 65.699 25.5027 65.1985 25.5027C63.2281 25.5027 61.6151 24.3904 61.6151 21.689C61.6151 19.2975 63.2757 17.8833 65.4766 17.8833C65.9215 17.8833 66.3108 17.931 66.6366 18.058V25.304Z" fill="#FA0C00"/>
<path d="M78.2957 15.3885C74.5854 15.3885 72.2892 18.2329 72.2892 21.7446C72.2892 24.883 74.1165 28.069 78.2401 28.069C81.728 28.069 84.175 25.5027 84.175 21.6652C84.175 18.2805 82.1015 15.3885 78.2957 15.3885ZM78.1448 17.8833C80.2423 17.8833 81.1321 19.6869 81.1321 21.7446C81.1321 24.2871 79.8212 25.5504 78.2957 25.5504C76.4127 25.5504 75.3004 23.9693 75.3004 21.689C75.3004 19.3452 76.4842 17.8833 78.1448 17.8833Z" fill="#FA0C00"/>
<path d="M86.96 10.2241C86.8567 10.2241 86.785 10.2718 86.785 10.399V27.3062C86.785 27.3777 86.8567 27.5049 86.96 27.5287C88.1434 27.8941 89.3834 28.069 90.6625 28.069C94.325 28.069 97.8842 25.7966 97.8842 21.2202C97.8842 17.9071 95.6117 15.3885 92.0525 15.3885C91.2342 15.3885 90.4717 15.5156 89.8042 15.738L89.7725 10.4228C89.7725 10.248 89.725 10.2241 89.55 10.2241H86.96ZM94.8417 21.5221C94.8417 24.2632 92.9667 25.5504 90.94 25.5504C90.5192 25.5504 90.1459 25.5265 89.8042 25.4232V18.209C90.1934 18.058 90.6625 17.931 91.5284 17.931C93.4825 17.931 94.8417 19.1704 94.8417 21.5221Z" fill="#FA0C00"/>
<path d="M107.936 22.412C109.143 22.412 110.137 22.3882 110.478 22.3088C110.606 22.285 110.653 22.2373 110.678 22.134C110.748 21.8638 110.78 21.2997 110.78 20.6085C110.78 18.2567 109.366 15.3885 105.712 15.3885C101.978 15.3885 99.9034 18.4315 99.9034 21.8638C99.9034 24.9068 101.508 28.069 106.005 28.069C107.69 28.069 108.778 27.7989 109.716 27.354C109.811 27.3063 109.858 27.2268 109.858 27.0838V25.026C109.858 24.9068 109.788 24.883 109.716 24.9306C108.778 25.328 107.761 25.5265 106.649 25.5265C104.13 25.5265 102.986 24.1361 102.915 22.412H107.936ZM102.915 20.2827C103.113 19.0751 103.876 17.7641 105.584 17.7641C107.468 17.7641 107.96 19.3452 107.96 20.0603C107.96 20.0841 107.96 20.1874 107.96 20.2589C107.857 20.2827 107.539 20.2827 106.601 20.2827H102.915Z" fill="#FA0C00"/>
</g>
<defs>
<clipPath id="clip0_769_85">
<rect width="110.833" height="40" fill="white" transform="translate(0.083374)"/>
</clipPath>
</defs>
</svg>
