<svg width="112" height="32" viewBox="0 0 112 32" fill="none" xmlns="http://www.w3.org/2000/svg">
<g clip-path="url(#clip0_769_96)">
<path d="M23.8496 7.38826C22.0462 6.54453 20.118 5.93132 18.102 5.58215C17.8544 6.02977 17.5652 6.63183 17.3657 7.11078C15.2227 6.78849 13.0995 6.78849 10.9958 7.11078C10.7964 6.63183 10.5007 6.02977 10.2508 5.58215C8.23273 5.93132 6.30227 6.54678 4.49888 7.39277C0.86145 12.8894 -0.124598 18.2495 0.368427 23.5335C2.78097 25.3351 5.119 26.4295 7.41761 27.1457C7.98512 26.3647 8.49126 25.5343 8.92735 24.6593C8.09687 24.3437 7.30148 23.9543 6.54989 23.5022C6.74927 23.3545 6.94427 23.2 7.13275 23.0411C11.7168 25.1852 16.6974 25.1852 21.2267 23.0411C21.4173 23.2 21.6123 23.3545 21.8095 23.5022C21.0557 23.9565 20.2581 24.3459 19.4277 24.6615C19.8638 25.5343 20.3677 26.3669 20.9375 27.148C23.2382 26.4318 25.5784 25.3374 27.991 23.5335C28.5695 17.408 27.0027 12.0971 23.8496 7.38826ZM9.55184 20.2839C8.17575 20.2839 7.04727 18.9992 7.04727 17.4348C7.04727 15.8705 8.1517 14.5836 9.55184 14.5836C10.952 14.5836 12.0805 15.8682 12.0564 17.4348C12.0586 18.9992 10.952 20.2839 9.55184 20.2839ZM18.8076 20.2839C17.4315 20.2839 16.303 18.9992 16.303 17.4348C16.303 15.8705 17.4073 14.5836 18.8076 14.5836C20.2078 14.5836 21.3362 15.8682 21.3121 17.4348C21.3121 18.9992 20.2078 20.2839 18.8076 20.2839Z" fill="#23272A"/>
<path d="M37.6868 11.0837H43.6687C45.1108 11.0837 46.329 11.3142 47.3284 11.7731C48.3252 12.2318 49.0725 12.8719 49.5678 13.691C50.0628 14.5102 50.3126 15.4479 50.3126 16.5043C50.3126 17.5382 50.054 18.476 49.5369 19.3152C49.0198 20.1567 48.2332 20.8214 47.1749 21.3115C46.1167 21.8017 44.806 22.0479 43.2395 22.0479H37.6868V11.0837ZM43.178 19.2615C44.1488 19.2615 44.8961 19.0131 45.4174 18.5184C45.9391 18.0217 46.1999 17.3457 46.1999 16.4886C46.1999 15.694 45.9674 15.0607 45.503 14.5862C45.0386 14.1118 44.3351 13.8723 43.3949 13.8723H41.5236V19.2615H43.178Z" fill="#23272A"/>
<path d="M59.2683 22.0346C58.4399 21.8153 57.6926 21.4974 57.0288 21.0789V18.4783C57.5306 18.8744 58.2032 19.2013 59.0467 19.4586C59.8903 19.7137 60.7057 19.8413 61.4943 19.8413C61.8624 19.8413 62.1409 19.7921 62.3292 19.6935C62.5178 19.5951 62.6121 19.4765 62.6121 19.34C62.6121 19.1833 62.5617 19.0535 62.4586 18.9483C62.3555 18.8431 62.1561 18.7558 61.8605 18.682L60.0198 18.259C58.9658 18.0083 58.2184 17.6615 57.7739 17.2161C57.329 16.7729 57.1075 16.191 57.1075 15.4704C57.1075 14.8638 57.3003 14.338 57.6906 13.8881C58.0783 13.4383 58.6305 13.0913 59.3469 12.8474C60.0637 12.6012 60.9005 12.4781 61.8625 12.4781C62.7213 12.4781 63.508 12.5721 64.2249 12.7601C64.9413 12.9482 65.5329 13.1876 66.0042 13.4808V15.9404C65.5217 15.6472 64.9695 15.4167 64.3386 15.2421C63.7097 15.0698 63.0635 14.9847 62.3971 14.9847C61.4351 14.9847 60.9555 15.1526 60.9555 15.4861C60.9555 15.6428 61.0299 15.7591 61.1789 15.8374C61.3278 15.9157 61.6016 15.9963 61.9984 16.0814L63.5321 16.3634C64.5338 16.5402 65.2808 16.8513 65.7716 17.2944C66.2624 17.7375 66.5081 18.3933 66.5081 19.2616C66.5081 20.2128 66.1029 20.967 65.2896 21.5266C64.4765 22.086 63.324 22.3658 61.8296 22.3658C60.9508 22.3636 60.0966 22.2539 59.2683 22.0346Z" fill="#23272A"/>
<path d="M70.1285 21.7055C69.2502 21.2668 68.5862 20.6715 68.1432 19.9195C67.7007 19.1675 67.4772 18.3215 67.4772 17.3815C67.4772 16.4416 67.7073 15.6001 68.1673 14.8593C68.6274 14.1185 69.3025 13.5366 70.1919 13.1136C71.0813 12.6906 72.1446 12.4802 73.3823 12.4802C74.9161 12.4802 76.1892 12.8093 77.2021 13.4672V16.3342C76.8446 16.0835 76.4283 15.8798 75.9526 15.7231C75.4775 15.5665 74.9691 15.4881 74.4253 15.4881C73.4745 15.4881 72.7321 15.665 72.1949 16.0208C71.6577 16.3766 71.3885 16.8399 71.3885 17.4151C71.3885 17.9791 71.6492 18.4402 72.1707 18.8027C72.6922 19.163 73.4483 19.3444 74.441 19.3444C74.9514 19.3444 75.4553 19.2682 75.9526 19.1183C76.4479 18.9661 76.8753 18.7803 77.2322 18.561V21.3339C76.1088 22.0232 74.8044 22.3679 73.3209 22.3679C72.0721 22.3634 71.0068 22.1441 70.1285 21.7055Z" fill="#23272A"/>
<path d="M81.0277 21.7057C80.1422 21.267 79.4678 20.6672 79.0025 19.9041C78.5385 19.1408 78.3039 18.2904 78.3039 17.3504C78.3039 16.4105 78.5359 15.5712 79.0025 14.8349C79.4691 14.0985 80.1403 13.5211 81.0212 13.1026C81.8995 12.6841 82.949 12.476 84.1652 12.476C85.3814 12.476 86.4309 12.6841 87.3099 13.1026C88.1882 13.5211 88.8594 14.0941 89.3194 14.8259C89.7795 15.5578 90.0095 16.397 90.0095 17.3482C90.0095 18.2882 89.7795 19.1387 89.3194 19.9018C88.8594 20.6649 88.1863 21.2647 87.3007 21.7034C86.4159 22.1421 85.3703 22.3614 84.1633 22.3614C82.9556 22.3614 81.9106 22.1443 81.0277 21.7057ZM85.6879 18.926C86.061 18.5455 86.2492 18.042 86.2492 17.4154C86.2492 16.7887 86.063 16.2896 85.6879 15.9203C85.316 15.5488 84.807 15.363 84.1633 15.363C83.5078 15.363 82.9948 15.5488 82.6203 15.9203C82.2478 16.2919 82.0616 16.7887 82.0616 17.4154C82.0616 18.042 82.2478 18.5455 82.6203 18.926C82.9935 19.3065 83.5078 19.4989 84.1633 19.4989C84.807 19.4967 85.316 19.3065 85.6879 18.926Z" fill="#23272A"/>
<path d="M99.2253 13.0577V16.4417C98.8358 16.1798 98.3313 16.05 97.7072 16.05C96.8897 16.05 96.2584 16.3029 95.8199 16.8087C95.3801 17.3145 95.1605 18.1023 95.1605 19.1676V22.0502H91.4028V12.8854H95.0841V15.7993C95.2879 14.734 95.6186 13.9485 96.0748 13.4404C96.5283 12.9347 97.1152 12.6818 97.8294 12.6818C98.3705 12.6818 98.8358 12.8071 99.2253 13.0577Z" fill="#23272A"/>
<path d="M111.711 10.7704V22.0501H107.953V19.9979C107.635 20.77 107.154 21.3585 106.505 21.7614C105.856 22.162 105.054 22.3634 104.103 22.3634C103.253 22.3634 102.512 22.1531 101.879 21.7301C101.246 21.3071 100.758 20.7274 100.413 19.9911C100.072 19.2548 99.8984 18.4223 99.8984 17.4913C99.8873 16.5311 100.069 15.6695 100.444 14.9062C100.817 14.1431 101.345 13.5478 102.024 13.1203C102.703 12.6929 103.479 12.478 104.349 12.478C106.139 12.478 107.34 13.2725 107.953 14.8593V10.7704H111.711ZM107.392 18.8632C107.776 18.4827 107.967 17.9881 107.967 17.3838C107.967 16.7997 107.78 16.3229 107.408 15.9581C107.035 15.5933 106.524 15.4098 105.883 15.4098C105.249 15.4098 104.744 15.5956 104.364 15.9671C103.985 16.3387 103.797 16.8198 103.797 17.4151C103.797 18.0105 103.985 18.4961 104.364 18.8721C104.744 19.2481 105.243 19.436 105.867 19.436C106.5 19.4339 107.009 19.2436 107.392 18.8632Z" fill="#23272A"/>
<path d="M53.4793 13.861C54.5139 13.861 55.3529 13.0915 55.3529 12.1423C55.3529 11.193 54.5139 10.4235 53.4793 10.4235C52.4444 10.4235 51.6058 11.193 51.6058 12.1423C51.6058 13.0915 52.4444 13.861 53.4793 13.861Z" fill="#23272A"/>
<path d="M51.6041 15.045C52.7521 15.5508 54.1765 15.5732 55.3509 15.045V22.0993H51.6041V15.045Z" fill="#23272A"/>
</g>
<defs>
<clipPath id="clip0_769_96">
<rect width="111.75" height="31.3684" fill="white" transform="translate(0.250122 0.315796)"/>
</clipPath>
</defs>
</svg>
