<svg width="95" height="40" viewBox="0 0 95 40" fill="none" xmlns="http://www.w3.org/2000/svg">
<g clip-path="url(#clip0_769_94)">
<path fill-rule="evenodd" clip-rule="evenodd" d="M93.6617 25.4694C89.7801 32.0505 83.6326 30.1409 81.7863 28.6457C81.0005 29.1789 79.6227 30.3475 77.7855 30.2125C73.8727 29.9253 72.4717 24.3339 72.4717 24.3339C72.4997 24.3562 71.3061 24.7457 70.661 24.7388C70.6527 26.3785 69.2353 30.2955 65.41 30.2454C61.1174 30.1894 60.2448 23.7942 60.2448 23.7942C60.2448 23.7942 59.8176 24.3874 58.1934 24.9782C58.2752 23.7185 58.2154 30.0536 53.0706 30.1467C49.0032 30.2205 47.9053 23.6956 47.9053 23.6956C47.9053 23.6956 47.1997 24.4285 45.8323 24.6828C45.9192 23.4025 45.7779 30.1682 40.6325 30.1467C37.1552 30.1323 35.967 26.1275 36.0594 25.5716C36.1773 24.8632 34.8842 30.2464 31.5067 30.1625C30.1128 30.1215 29.0737 29.1124 28.4217 27.767C27.5487 28.7657 26.2814 30.1625 24.8597 30.1625C22.3077 30.1625 21.1827 28.028 21.3732 21.9315C21.3895 21.2085 21.3372 20.9241 20.6185 20.816C20.187 20.744 19.7452 20.6076 19.2777 20.5358C19.1278 21.0358 17.857 29.9998 13.4869 30.17C12.0208 30.227 11.2192 28.957 10.5609 28.0145C9.55175 29.3495 8.21954 30.2125 6.32175 30.2125C3.10703 30.2125 0.916748 27.6137 0.916748 24.4079C0.916748 21.202 3.10703 18.6035 6.32175 18.6035C6.89014 18.6035 7.0497 18.685 7.56896 18.8365C6.50108 9.11371 9.02299 7.59415 11.2291 7.59415C13.3471 7.59415 16.9655 12.51 11.8741 24.9792C13.0045 28.6984 15.4414 28.488 16.6124 20.8318C16.8507 19.2755 16.2135 17.1754 17.2047 16.8823C19.0167 16.3466 19.2089 17.9538 20.0585 18.2216C20.9568 18.5046 21.4812 18.477 22.3435 18.657C23.8172 18.9449 24.3922 19.7365 24.2127 21.4996C23.9971 23.7305 23.6199 26.9776 24.7699 27.3734C25.5992 27.6609 27.1132 25.941 27.379 25C27.6446 24.0591 27.7 23.737 27.7237 23.0469C27.7596 21.5717 27.8047 20.4905 28.0562 19.3749C28.1638 18.9432 28.2866 18.6573 28.775 18.6378C29.1768 18.6275 29.9117 18.5065 30.2353 18.7583C30.6665 19.0823 30.6126 19.411 30.5631 20.2763C30.0616 32.6127 33.9214 26.4543 35.0722 21.5232C34.6624 15.9474 34.9437 7.69625 38.4378 7.55787C40.2551 7.4859 41.0584 8.94171 41.1468 10.0283C41.3967 13.0973 39.9967 18.181 38.1554 21.5997C37.1031 28.5755 42.7565 29.9549 43.6606 24.3868C42.1814 23.6835 40.5828 20.837 41.8837 19.4497C42.6136 18.6712 45.6519 19.7896 45.7017 22.229C47.192 21.8304 47.391 20.9889 47.4117 21.1283C47.002 15.5525 47.382 7.69632 50.8763 7.55793C52.6932 7.48597 53.4965 8.94171 53.5848 10.0284C53.8348 13.0973 52.4347 18.181 50.5937 21.5999C49.5412 28.5755 55.1947 29.955 56.0986 24.3869C55.0035 24.1755 52.6918 21.1479 54.0256 19.4498C54.7384 18.5424 57.7656 20.4295 58.1045 22.3097C59.5362 21.9045 59.7307 21.0898 59.7512 21.227C59.3414 15.6513 59.7214 7.79514 63.2157 7.65675C65.0327 7.58478 65.8359 9.04054 65.9243 10.1272C66.1742 13.1961 64.7742 18.28 62.9329 21.6987C61.8807 28.6745 67.5341 30.0536 68.4382 24.4855C66.9333 24.235 64.7945 21.0381 66.5158 19.4027C67.2036 18.7493 69.8315 20.4455 70.4467 22.3806C71.3013 22.3477 71.8334 22.053 71.9474 22.0232C70.5829 15.4775 71.5987 7.62359 75.3577 7.55803C77.3893 7.52263 79.3756 8.65637 78.5037 14.8838C77.6716 20.8255 74.6802 23.3189 74.6872 23.357C74.8612 24.0689 76.3962 30.026 80.2616 26.8828C80.0615 26.4297 79.8612 25.9669 79.7492 25.4061C79.1085 22.1397 80.3669 18.4503 83.7873 17.854C85.7467 17.5124 87.5934 18.4665 87.8851 20.6175C88.3651 24.137 85.1867 26.686 83.9785 27.239C83.4372 26.9315 88.8851 30.4255 92.1184 23.4233C92.3059 23.0235 92.5317 23.0574 92.8251 23.2635C93.0317 23.409 94.2092 24.5249 93.6617 25.4694ZM8.66016 23.543C8.49565 23.0512 8.15804 21.9675 8.03865 21.498C7.38114 20.9261 6.91183 20.8333 6.06786 20.8333C4.19231 20.8333 3.08838 22.5674 3.08838 24.4372C3.08838 26.307 4.29102 28.0413 6.1666 28.0413C7.79199 28.0413 9.02907 26.9362 9.4065 25.3718C9.14231 24.7619 8.88026 24.2014 8.66016 23.543ZM11.1832 10.1679C9.86525 10.1679 9.41825 13.3116 9.505 15.9936C9.58175 18.3648 10.2443 20.4523 10.588 21.3877C10.6752 21.5049 10.6591 21.4286 10.737 21.553C13.0252 16.5393 12.0762 10.1679 11.1832 10.1679ZM38.6261 10.2666C36.9228 10.0712 36.9338 17.1667 37.1452 18.7583C38.0299 17.3431 39.5666 10.6476 38.6261 10.2666ZM51.0642 10.2666C49.3608 10.0712 49.3718 17.1667 49.5834 18.7583C50.468 17.3431 52.0047 10.6476 51.0642 10.2666ZM63.4037 10.3653C61.7003 10.17 61.7113 17.2655 61.9229 18.8572C62.8074 17.4419 64.3442 10.7463 63.4037 10.3653ZM75.5457 9.85121C72.8918 10.3841 73.5097 19.2324 73.9128 20.7843C77.0388 16.4908 77.1032 9.68996 75.5457 9.85121ZM85.4917 20.9085C85.3567 20.3444 84.6817 20.0429 84.2162 20.1172C82.8837 20.2991 81.5913 21.9587 82.0916 24.4853C82.203 25.048 82.4817 25.566 82.4771 25.5487C85.4592 23.548 85.7126 21.9715 85.4917 20.9085ZM29.2973 16.6848C28.9165 16.6849 28.5442 16.572 28.2276 16.3605C27.9108 16.1489 27.664 15.8482 27.5182 15.4964C27.3723 15.1445 27.3342 14.7574 27.4085 14.3839C27.4827 14.0103 27.6662 13.6672 27.9354 13.3979C28.2047 13.1285 28.5477 12.9451 28.9212 12.8709C29.2948 12.7965 29.682 12.8346 30.0338 12.9804C30.3857 13.1261 30.6864 13.373 30.898 13.6896C31.1096 14.0063 31.2225 14.3786 31.2225 14.7595C31.2225 15.0123 31.1727 15.2626 31.0759 15.4962C30.9792 15.7298 30.8375 15.942 30.6587 16.1208C30.4798 16.2996 30.2677 16.4415 30.0341 16.5382C29.8006 16.635 29.5502 16.6848 29.2973 16.6848Z" fill="#0D0C22"/>
</g>
<defs>
<clipPath id="clip0_769_94">
<rect width="93.3333" height="40" fill="white" transform="translate(0.916748)"/>
</clipPath>
</defs>
</svg>
