<svg width="17" height="12" viewBox="0 0 17 12" fill="none" xmlns="http://www.w3.org/2000/svg">
<path d="M2.4762 0.713745C2.00887 0.713745 1.56067 0.899393 1.23022 1.22985C0.89976 1.56031 0.714111 2.0085 0.714111 2.47584V3.49873L8.15102 7.21763C8.30394 7.29408 8.47256 7.33389 8.64352 7.33389C8.81449 7.33389 8.98311 7.29408 9.13603 7.21763L16.5729 3.49961V2.47584C16.5729 2.0085 16.3873 1.56031 16.0568 1.22985C15.7264 0.899393 15.2782 0.713745 14.8108 0.713745H2.4762Z" fill="#334155"/>
<path d="M16.5727 4.97717L9.72698 8.40004C9.39051 8.5683 9.01949 8.6559 8.64329 8.6559C8.2671 8.6559 7.89608 8.5683 7.55961 8.40004L0.713882 4.97717V9.52425C0.713882 9.99159 0.899531 10.4398 1.22999 10.7702C1.56044 11.1007 2.00864 11.2863 2.47597 11.2863H14.8106C15.278 11.2863 15.7261 11.1007 16.0566 10.7702C16.3871 10.4398 16.5727 9.99159 16.5727 9.52425V4.97717Z" fill="#334155"/>
</svg>
