<svg width="83" height="24" viewBox="0 0 83 24" fill="none" xmlns="http://www.w3.org/2000/svg">
<g clip-path="url(#clip0_769_74)">
<path d="M19.9049 0.719849V18.134L22.1414 18.1425V9.85372H27.5449V7.65989H22.1414V2.91369H29.1754V0.719849H19.9049ZM33.2131 4.25389C34.024 4.25389 34.6728 3.59659 34.6728 2.79418C34.6728 1.99176 34.0155 1.33446 33.2131 1.33446C32.4021 1.33446 31.7533 1.99176 31.7533 2.79418C31.7533 3.59659 32.4106 4.25389 33.2131 4.25389ZM32.0777 6.44773V18.134H34.3142V6.44773H32.0777Z" fill="black"/>
<path fill-rule="evenodd" clip-rule="evenodd" d="M42.6185 6.10718C39.6393 6.10718 37.565 8.6254 37.565 11.6131C37.565 14.6008 39.6393 17.119 42.6185 17.119C43.9843 17.119 45.1026 16.5898 45.922 15.7362V17.2812C45.922 19.219 44.4026 20.8323 42.4136 20.8323C41.6966 20.8323 40.988 20.5592 40.4247 20.1665L39.2979 22.1128C40.1942 22.6933 41.2612 23.0262 42.4051 23.0262C45.5806 23.0262 48.15 20.4567 48.15 17.2812V6.44863H45.922V7.49006C45.1026 6.63643 43.9843 6.10718 42.6185 6.10718ZM39.81 11.6131C39.81 9.76073 41.2271 8.30102 42.866 8.30102C44.505 8.30102 45.922 9.76073 45.922 11.6131C45.922 13.4655 44.505 14.9252 42.866 14.9252C41.2271 14.9252 39.81 13.4655 39.81 11.6131Z" fill="black"/>
<path d="M56.2359 8.30102C54.9128 8.30102 53.8372 9.42781 53.8372 10.7509V18.1349H51.6007V6.44863H53.8372V7.51567C54.4945 6.67058 55.4591 6.10718 56.7225 6.10718C58.2932 6.10718 59.4968 6.88398 60.1968 8.07907C60.9736 6.92667 62.237 6.10718 63.765 6.10718C66.3174 6.10718 67.9051 8.16443 67.9137 10.7083V18.1349H65.6771V10.7424C65.6771 9.41927 64.6016 8.29248 63.2784 8.29248C61.9553 8.29248 60.8797 9.41927 60.8797 10.7424V18.1349H58.6432V10.7424C58.6347 9.41927 57.5591 8.30102 56.2359 8.30102Z" fill="black"/>
<path fill-rule="evenodd" clip-rule="evenodd" d="M79.8476 7.77176C78.8488 6.73887 77.483 6.10718 75.9038 6.10718C72.5746 6.10718 70.2015 8.9327 70.2015 12.296C70.2015 15.6593 72.5661 18.4849 75.9038 18.4849C77.483 18.4849 78.8488 17.8446 79.8476 16.8203V18.1349H82.0841V6.44863H79.8476V7.77176ZM72.4466 12.296C72.4466 10.068 74.1539 8.30102 76.1514 8.30102C78.1403 8.30102 79.8561 10.0595 79.8561 12.296C79.8561 14.524 78.1489 16.291 76.1514 16.291C74.1539 16.2825 72.4466 14.524 72.4466 12.296Z" fill="black"/>
<path d="M7.60442 12.0055C7.60442 9.93116 9.28607 8.24097 11.3689 8.24097C13.4433 8.24097 15.1335 9.92262 15.1335 12.0055C15.1335 14.0798 13.4518 15.77 11.3689 15.77C9.29461 15.77 7.60442 14.0798 7.60442 12.0055Z" fill="#1ABCFE"/>
<path d="M0.083374 19.5265C0.083374 17.4522 1.76503 15.762 3.8479 15.762H7.61242V19.5265C7.61242 21.6008 5.93076 23.291 3.8479 23.291C1.76503 23.291 0.083374 21.6094 0.083374 19.5265Z" fill="#0ACF83"/>
<path d="M7.60442 0.720817V8.24132H11.3689C13.4433 8.24132 15.1335 6.55967 15.1335 4.4768C15.1335 2.40247 13.4518 0.71228 11.3689 0.71228H7.60442V0.720817Z" fill="#FF7262"/>
<path d="M0.083374 4.48437C0.083374 6.5587 1.76503 8.24889 3.8479 8.24889H7.61242V0.719849H3.8479C1.76503 0.719849 0.083374 2.40151 0.083374 4.48437Z" fill="#F24E1E"/>
<path d="M0.083374 12.0055C0.083374 14.0798 1.76503 15.77 3.8479 15.77H7.61242V8.24097H3.8479C1.76503 8.24097 0.083374 9.93116 0.083374 12.0055Z" fill="#A259FF"/>
</g>
<defs>
<clipPath id="clip0_769_74">
<rect width="82" height="22.5992" fill="white" transform="translate(0.083374 0.700439)"/>
</clipPath>
</defs>
</svg>
