<svg width="19" height="19" viewBox="0 0 19 19" fill="none" xmlns="http://www.w3.org/2000/svg">
<g clip-path="url(#clip0_769_142)">
<path d="M12.0959 6.78229H8.63111V0H12.0959C13.9657 0 15.4867 1.52094 15.4867 3.39077C15.4867 5.2606 13.9657 6.78229 12.0959 6.78229ZM9.74199 5.67142H12.0959C13.3533 5.67142 14.3758 4.64815 14.3758 3.39152C14.3758 2.1349 13.3525 1.11163 12.0959 1.11163H9.74199V5.67142ZM9.74199 6.78229H6.27797C4.40814 6.78229 2.8872 5.26135 2.8872 3.39152C2.8872 1.52169 4.40814 0 6.27797 0H9.74274V6.78229H9.74199ZM6.27797 1.11087C5.02059 1.11087 3.99807 2.13414 3.99807 3.39077C3.99807 4.64739 5.02059 5.67142 6.27797 5.67142H8.63187V1.11087H6.27797ZM9.74199 12.453H6.27797C4.40814 12.453 2.8872 10.932 2.8872 9.06218C2.8872 7.19235 4.40814 5.67142 6.27797 5.67142H9.74274V12.453H9.74199ZM6.27797 6.78229C5.02059 6.78229 3.99807 7.80556 3.99807 9.06218C3.99807 10.3188 5.02134 11.3421 6.27797 11.3421H8.63187V6.78229H6.27797ZM6.29609 18.1244C4.41644 18.1244 2.88644 16.6034 2.88644 14.7336C2.88644 12.8638 4.40738 11.3428 6.27721 11.3428H9.74199V14.6966C9.74199 16.5868 8.19613 18.1244 6.29609 18.1244ZM6.27797 12.453C5.67355 12.4538 5.09411 12.6942 4.66672 13.1216C4.23933 13.549 3.99887 14.1284 3.99807 14.7328C3.99807 15.9902 5.0289 17.0127 6.29685 17.0127C7.58443 17.0127 8.63262 15.9736 8.63262 14.6958V12.453H6.27797ZM12.0959 12.453H12.0219C10.1521 12.453 8.63111 10.932 8.63111 9.06218C8.63111 7.19235 10.1521 5.67142 12.0219 5.67142H12.0959C13.9657 5.67142 15.4867 7.19235 15.4867 9.06218C15.4867 10.932 13.9657 12.453 12.0959 12.453ZM12.0226 6.78229C10.7653 6.78229 9.74274 7.80556 9.74274 9.06218C9.74274 10.3188 10.766 11.3421 12.0226 11.3421H12.0966C13.354 11.3421 14.3765 10.3188 14.3765 9.06218C14.3765 7.80556 13.3533 6.78229 12.0966 6.78229H12.0226Z" fill="#F24E1E"/>
</g>
<defs>
<clipPath id="clip0_769_142">
<rect width="18.1244" height="18.1244" fill="white" transform="translate(0.124359)"/>
</clipPath>
</defs>
</svg>
