<svg width="93" height="30" viewBox="0 0 93 30" fill="none" xmlns="http://www.w3.org/2000/svg">
<path fill-rule="evenodd" clip-rule="evenodd" d="M10.5834 10.1H20.5834V0.300049H0.783375V0.400049L10.5834 10.1Z" fill="#67DBFF"/>
<path fill-rule="evenodd" clip-rule="evenodd" d="M10.5834 10.1001H0.583374V19.9001H20.3834V19.8001L10.5834 10.1001Z" fill="#01A3FF"/>
<path fill-rule="evenodd" clip-rule="evenodd" d="M0.683372 19.8H10.5834V29.7001L0.683372 19.8Z" fill="#0162FF"/>
<path d="M34.1834 19.8001V14.4001H40.0834V11.9001H34.1834V8.30007H40.5834V5.70007H31.2834V19.7001H34.1834V19.8001Z" fill="#191D26"/>
<path d="M47.9834 9.60003C47.7834 9.50003 47.3834 9.40002 46.8834 9.40002C45.8834 9.40002 45.0834 9.90003 44.5834 10.6V9.60003H41.7834V19.8H44.5834V13.5C44.7834 12.6 45.5834 12.1 46.4834 12.1C46.9834 12.1 47.4834 12.2 47.8834 12.4V9.60003H47.9834Z" fill="#191D26"/>
<path d="M57.3834 19.8V13.3C57.3834 10.9 55.7834 9.40002 53.0834 9.40002C50.7834 9.40002 49.0834 10.8 48.7834 12.7H51.4834C51.6834 12.1 52.1834 11.7 52.9834 11.7C54.0834 11.7 54.6834 12.4 54.6834 13.3V14C54.2834 13.7 53.2834 13.4 52.3834 13.4C50.1834 13.4 48.4834 14.7 48.4834 16.7C48.4834 18.8 50.1834 20 52.2834 20C53.3834 20 54.3834 19.6 54.7834 19.3V19.8H57.3834ZM54.6834 17C54.3834 17.5 53.6834 17.9 52.8834 17.9C51.9834 17.9 51.0834 17.5 51.0834 16.6C51.0834 15.7 51.9834 15.3 52.8834 15.3C53.6834 15.3 54.4834 15.6 54.6834 16.2V17Z" fill="#191D26"/>
<path d="M67.3834 10.7C66.7834 9.90003 65.8834 9.40002 64.6834 9.40002C63.5834 9.40002 62.5834 9.80002 62.0834 10.5V9.70003H59.2834V19.9H62.0834V13.3C62.2834 12.4 62.9834 12 63.6834 12C64.6834 12 65.0834 12.7 65.0834 13.8V19.9H67.8834V13.3C68.0834 12.4 68.6834 12 69.4834 12C70.4834 12 70.9834 12.7 70.9834 13.8V19.9H73.7834V13.2C73.7834 10.9 72.4834 9.40002 70.3834 9.40002C69.0834 9.40002 68.0834 10 67.3834 10.7Z" fill="#191D26"/>
<path d="M81.8834 16.5C81.6834 17.4 80.9834 17.8 79.9834 17.8C78.6834 17.8 77.8834 16.9 77.7834 15.4H84.5834V14.5C84.5834 11.5 82.9834 9.40002 79.9834 9.40002C77.1834 9.40002 75.0834 11.7 75.0834 14.7C75.0834 17.8 77.0834 20 79.9834 20C82.5834 20 84.0834 18.6 84.4834 16.4H81.8834V16.5ZM79.9834 11.7C81.1834 11.7 81.7834 12.5 81.7834 13.6H77.8834C78.1834 12.4 78.8834 11.7 79.9834 11.7Z" fill="#191D26"/>
<path d="M92.0834 9.60003C91.8834 9.50003 91.4834 9.40002 90.9834 9.40002C89.9834 9.40002 89.1834 9.90003 88.6834 10.6V9.60003H85.8834V19.8H88.6834V13.5C88.8834 12.6 89.6834 12.1 90.5834 12.1C91.0834 12.1 91.5834 12.2 91.9834 12.4V9.60003H92.0834Z" fill="#191D26"/>
</svg>
