<svg width="19" height="19" viewBox="0 0 19 19" fill="none" xmlns="http://www.w3.org/2000/svg">
<g clip-path="url(#clip0_769_146)">
<path d="M9.18645 0.224243C4.17959 0.224243 0.124268 4.28184 0.124268 9.28643C0.124268 13.2912 2.72058 16.6872 6.32054 17.8842C6.77365 17.9695 6.93979 17.6893 6.93979 17.4484C6.93979 17.2332 6.93223 16.663 6.92846 15.9079C4.40766 16.4546 3.87601 14.692 3.87601 14.692C3.46368 13.6461 2.86784 13.3667 2.86784 13.3667C2.04696 12.8048 2.93128 12.8161 2.93128 12.8161C3.84127 12.8796 4.3193 13.7496 4.3193 13.7496C5.12735 15.1353 6.44061 14.7351 6.95866 14.5032C7.04022 13.9172 7.27358 13.5177 7.5326 13.2912C5.52004 13.0646 3.40478 12.2853 3.40478 8.81293C3.40478 7.82364 3.75594 7.01559 4.33743 6.38124C4.23548 6.15242 3.92963 5.2311 4.41672 3.98278C4.41672 3.98278 5.17568 3.73962 6.90882 4.91166C7.6338 4.71002 8.40408 4.61034 9.17437 4.60581C9.94465 4.61034 10.7149 4.71002 11.4399 4.91166C13.1617 3.73962 13.9207 3.98278 13.9207 3.98278C14.4078 5.2311 14.1019 6.15242 14.0113 6.38124C14.589 7.01559 14.9402 7.82364 14.9402 8.81293C14.9402 12.2943 12.8219 13.0608 10.8056 13.2836C11.1227 13.5555 11.4173 14.1113 11.4173 14.9601C11.4173 16.1729 11.4059 17.1471 11.4059 17.4416C11.4059 17.6795 11.5645 17.9627 12.029 17.8721C15.6546 16.6834 18.2486 13.2851 18.2486 9.28643C18.2486 4.28184 14.191 0.224243 9.18645 0.224243Z" fill="#222222"/>
</g>
<defs>
<clipPath id="clip0_769_146">
<rect width="18.1244" height="18.1244" fill="white" transform="translate(0.12439)"/>
</clipPath>
</defs>
</svg>
