<svg width="104" height="40" viewBox="0 0 104 40" fill="none" xmlns="http://www.w3.org/2000/svg">
<g clip-path="url(#clip0_769_48)">
<path d="M44.1009 15.2802H47.9919L42.4626 29.2059H38.9812L33.3494 15.2802H37.3428L40.7219 24.5981L44.1009 15.2802ZM49.2207 29.1035H53.0093V15.2802H49.2207V29.1035ZM54.75 24.5981H58.5386C58.641 25.5197 59.2553 26.4413 60.8937 26.4413C62.3273 26.4413 63.044 25.9293 63.044 25.2125C63.044 22.8574 55.3643 25.1101 55.3643 19.5808C55.3643 17.0209 57.5147 14.973 60.8937 14.973C65.0919 14.973 66.5254 17.6353 66.6278 19.6832H63.044C62.9416 18.7616 62.3273 18.0449 60.9961 18.0449C59.7673 18.0449 59.0506 18.6593 59.0506 19.376C59.0506 21.7311 66.7302 19.376 66.7302 25.1101C66.7302 27.5676 64.5799 29.5131 60.8937 29.5131C56.4907 29.4107 54.9548 27.2604 54.75 24.5981ZM68.5733 29.1035H72.3619V15.2802H68.5733V29.1035ZM81.2703 26.1341C83.2158 26.1341 84.7517 24.7005 84.7517 22.1407C84.7517 19.6832 83.2158 18.1473 81.2703 18.1473C79.3248 18.1473 77.7888 19.5808 77.7888 22.1407C77.7888 24.7005 79.3248 26.1341 81.2703 26.1341ZM74.0003 22.1407C74.0003 18.1473 76.8673 14.8706 81.2703 14.8706C85.6733 14.8706 88.54 18.1473 88.54 22.1407C88.54 26.1341 85.6733 29.4107 81.2703 29.4107C76.8673 29.4107 74.0003 26.1341 74.0003 22.1407ZM93.7625 16.9185C94.3767 15.6898 95.81 14.8706 97.8584 14.8706C101.238 14.8706 102.978 17.1234 102.978 20.3999V29.1035H99.1892V20.8095C99.1892 19.1712 98.4725 18.0449 96.8342 18.0449C94.9908 18.0449 93.9675 19.1712 93.9675 21.1167V29.1035H90.1783V15.2802H93.7625V16.9185Z" fill="#FF3366"/>
<path d="M0.583344 37.5H35.5V2.58337H0.583344V37.5Z" fill="#FF3366"/>
<path d="M12.8707 13.5397C13.997 13.5397 14.9185 12.7206 14.9185 11.4918C14.9185 10.3655 13.997 9.44397 12.8707 9.44397C11.7444 9.44397 10.8228 10.2631 10.8228 11.4918C10.8228 12.7206 11.7444 13.5397 12.8707 13.5397ZM8.57008 24.3936C8.46768 24.9056 8.36529 25.4176 8.36529 25.9296C8.36529 27.6702 9.28686 28.899 11.3348 28.899C13.0754 28.899 14.4066 27.8751 15.4305 26.2367L14.8162 28.6942H18.1952L20.1407 21.0146C20.6527 19.0691 21.5743 18.0451 23.0078 18.0451C24.1341 18.0451 24.8509 18.7619 24.8509 19.8882C24.8509 20.1954 24.8509 20.605 24.7484 21.0146L23.7245 24.5984C23.6221 25.1104 23.5198 25.6223 23.5198 26.1343C23.5198 27.7726 24.5437 29.0014 26.5916 29.0014C28.3323 29.0014 29.7659 27.8751 30.585 25.1104L29.2539 24.5984C28.6395 26.4415 28.0251 26.7487 27.6155 26.7487C27.2059 26.7487 26.8988 26.4415 26.8988 25.8271C26.8988 25.52 27.0012 25.2127 27.0012 24.9056L27.9227 21.4241C28.1275 20.605 28.2299 19.8882 28.2299 19.2739C28.2299 16.714 26.6939 15.3829 24.7484 15.3829C23.0078 15.3829 21.1647 17.0211 20.2431 18.6595L20.8574 15.6901H15.7377L15.0209 18.3523H17.376L15.9425 23.9841C14.8162 26.5439 12.6659 26.6463 12.3587 26.5439C11.9491 26.4415 11.6419 26.2367 11.6419 25.7247C11.6419 25.4176 11.7444 24.9056 11.8467 24.3936L14.0994 15.4852H8.46768L7.75092 18.1475H10.106L8.57008 24.3936Z" fill="white"/>
</g>
<defs>
<clipPath id="clip0_769_48">
<rect width="102.5" height="40" fill="white" transform="translate(0.583344)"/>
</clipPath>
</defs>
</svg>
