<svg width="338" height="64" viewBox="0 0 338 64" fill="none" xmlns="http://www.w3.org/2000/svg">
<path d="M44.0516 32.5271C44.0769 33.6932 44.0389 34.8593 43.9375 36.0254C43.8614 37.1915 43.7347 38.3449 43.5573 39.4856C43.177 41.7924 42.5813 43.9852 41.7701 46.0639C40.9843 48.1172 39.9576 50.0057 38.6901 51.7295C37.4226 53.504 35.9397 55.0123 34.2413 56.2544C32.5428 57.5473 30.5909 58.5486 28.3855 59.2584C26.1801 59.9681 23.7465 60.323 21.0848 60.323C18.3977 60.323 16.0402 59.9048 14.0122 59.0682C11.9843 58.2063 10.2225 57.0529 8.72684 55.608C7.23121 54.1377 5.96372 52.452 4.92439 50.5508C3.88505 48.6242 3.06119 46.6216 2.4528 44.5429C1.81906 42.4389 1.35009 40.3095 1.04589 38.1548C0.741696 35.9747 0.564248 33.896 0.513549 31.9188C0.488199 30.6513 0.488199 29.3331 0.513549 27.9642C0.538898 26.5953 0.589598 25.1631 0.665647 23.6674C0.792395 21.1071 1.02054 18.1285 1.35009 14.7317C1.70498 11.3348 2.23732 7.70984 2.94712 3.8567L11.1984 5.03545C10.6154 7.54507 10.1464 9.96596 9.79152 12.2981C9.43663 14.6303 9.15778 16.823 8.95498 18.8764C8.75218 20.9297 8.61276 22.8056 8.53671 24.504C8.48601 26.2024 8.46066 27.66 8.46066 28.8768C8.46066 29.5866 8.47334 30.3344 8.49869 31.1202C8.54939 31.9061 8.60009 32.7426 8.65079 33.6299C8.77753 35.379 9.00568 37.1535 9.33523 38.9533C9.66477 40.7531 10.1464 42.5149 10.7802 44.2387C11.3885 45.9878 12.1997 47.5088 13.2137 48.8016C14.2277 50.1198 15.4698 51.1972 16.9401 52.0337C18.4104 52.8449 20.1595 53.2505 22.1875 53.2505C26.4209 53.2505 29.767 51.3873 32.226 47.6609C33.4174 45.8611 34.3173 43.681 34.9257 41.1207C35.5594 38.5604 35.851 35.6959 35.8003 32.5271C35.7749 29.9668 35.6228 27.2291 35.344 24.3139C35.1412 21.7789 34.8243 18.8764 34.3934 15.6063C33.9624 12.3362 33.3667 8.86325 32.6062 5.18755L40.7054 4.08484C41.5166 8.26753 42.1377 12.0953 42.5686 15.5682C42.9996 19.0158 43.3291 22.007 43.5573 24.542C43.684 26.0123 43.7854 27.4192 43.8614 28.7627C43.9628 30.0809 44.0262 31.3357 44.0516 32.5271ZM66.6746 7.92531C66.6746 9.39559 66.1296 10.6631 65.0396 11.7278C63.9749 12.7671 62.6947 13.2868 61.1991 13.2868C59.7288 13.2868 58.4613 12.7671 57.3966 11.7278C56.3573 10.6631 55.8376 9.39559 55.8376 7.92531C55.8376 6.42969 56.3573 5.14953 57.3966 4.08484C58.4613 2.99481 59.7288 2.44979 61.1991 2.44979C62.6947 2.44979 63.9749 2.99481 65.0396 4.08484C66.1296 5.14953 66.6746 6.42969 66.6746 7.92531ZM57.0164 21.6141L64.8875 21.3099L64.5072 39.5617C64.3805 44.5809 64.3044 48.5228 64.2791 51.3873C64.203 54.8855 64.165 57.636 64.165 59.6386H56.37C56.3953 58.2697 56.4207 56.7741 56.446 55.1517C56.4967 53.504 56.5348 51.7422 56.5601 49.8663C56.6108 46.5962 56.6869 42.629 56.7883 37.9646L57.0164 21.6141ZM73.2894 21.462L81.2365 19.5988L92.986 34.0101L104.507 19.3707L111.694 22.1845L97.8151 39.9039L112.455 57.8514L105.458 60.7033L93.2142 45.8357L81.7688 60.5512L73.7456 58.3838L88.309 39.8278L73.2894 21.462Z" fill="#D81717"/>
<path d="M130.058 56.4445C130.058 57.7627 129.577 58.8908 128.613 59.8287C127.676 60.792 126.547 61.2737 125.229 61.2737C123.886 61.2737 122.732 60.792 121.769 59.8287C120.806 58.8908 120.324 57.7627 120.324 56.4445C120.324 55.0757 120.793 53.9223 121.731 52.9843C122.694 52.021 123.86 51.5394 125.229 51.5394C126.573 51.5394 127.714 52.021 128.651 52.9843C129.589 53.9476 130.058 55.101 130.058 56.4445ZM141.654 59.4865L143.594 0.814738L152.035 0.966836L150.628 37.0521L170.477 17.0892L176.333 21.7662L162.15 35.7973L178.5 57.0529L171.808 61.9581L156.522 41.3869L150.21 47.5468L149.83 58.9922L141.654 59.4865ZM222.873 34.3903L215.382 37.2042C215.357 35.0494 215.053 33.3003 214.47 31.9568C213.912 30.6133 213.164 29.5993 212.226 28.9148C211.339 28.2557 210.338 27.9515 209.222 28.0022C208.487 28.129 207.739 28.4205 206.979 28.8768C206.193 29.3584 205.369 29.9922 204.507 30.778C203.671 31.5639 202.834 32.4384 201.998 33.4017C201.567 33.8834 201.148 34.3777 200.743 34.8847C200.337 35.3917 199.932 35.8987 199.526 36.4056C198.74 37.4196 197.992 38.4463 197.283 39.4856C196.573 40.4996 195.939 41.4249 195.381 42.2614C195.407 43.3008 195.432 44.4922 195.457 45.8357C195.483 47.1539 195.508 48.4594 195.533 49.7522C195.584 51.0197 195.622 52.0971 195.648 52.9843C195.698 54.5813 195.749 56.0263 195.8 57.3191C195.85 58.5866 195.914 59.6132 195.99 60.3991L187.815 61.4257L187.054 40.094C187.003 38.6491 186.953 37.1028 186.902 35.455C186.851 33.782 186.801 32.2103 186.75 30.74C186.699 29.2444 186.661 28.0656 186.636 27.2037C186.534 23.6294 186.458 20.9424 186.408 19.1425L195.077 18.9904C195.103 19.7763 195.115 20.5621 195.115 21.348C195.115 22.1084 195.128 22.8943 195.153 23.7055C195.153 24.5167 195.153 25.3025 195.153 26.063C195.153 26.7981 195.166 27.4952 195.191 28.1543C195.217 28.9402 195.229 29.726 195.229 30.5119C195.229 31.2723 195.229 32.0202 195.229 32.7553C195.964 31.5892 196.864 30.3091 197.929 28.9148C198.994 27.5206 200.185 26.2024 201.503 24.9603C202.847 23.7181 204.304 22.6408 205.876 21.7282C207.448 20.7903 209.134 20.2072 210.933 19.9791C212.911 19.8777 214.761 20.3086 216.485 21.2719C217.195 21.6775 217.892 22.2225 218.576 22.907C219.286 23.566 219.945 24.4153 220.554 25.4546C221.137 26.5193 221.631 27.7868 222.037 29.257C222.442 30.702 222.721 32.4131 222.873 34.3903ZM241.009 7.92531C241.009 9.39559 240.464 10.6631 239.374 11.7278C238.309 12.7671 237.029 13.2868 235.534 13.2868C234.063 13.2868 232.796 12.7671 231.731 11.7278C230.692 10.6631 230.172 9.39559 230.172 7.92531C230.172 6.42969 230.692 5.14953 231.731 4.08484C232.796 2.99481 234.063 2.44979 235.534 2.44979C237.029 2.44979 238.309 2.99481 239.374 4.08484C240.464 5.14953 241.009 6.42969 241.009 7.92531ZM231.351 21.6141L239.222 21.3099L238.842 39.5617C238.715 44.5809 238.639 48.5228 238.614 51.3873C238.538 54.8855 238.5 57.636 238.5 59.6386H230.705C230.73 58.2697 230.755 56.7741 230.781 55.1517C230.831 53.504 230.869 51.7422 230.895 49.8663C230.945 46.5962 231.021 42.629 231.123 37.9646L231.351 21.6141ZM286.713 50.2846C286.713 52.6928 286.231 54.7208 285.268 56.3685C284.305 57.9909 282.999 59.3217 281.352 60.3611C279.729 61.3751 277.853 62.1229 275.724 62.6045C273.595 63.1115 271.389 63.4157 269.108 63.5171C266.725 63.4664 264.367 63.2256 262.035 62.7946C259.982 62.4397 257.713 61.7806 255.229 60.8174C252.745 59.8541 250.514 58.5993 248.537 57.0529L252.225 51.2732C253.619 52.0084 255.039 52.7181 256.484 53.4026C257.954 54.087 259.45 54.6827 260.971 55.1897C262.492 55.7221 264.051 56.1403 265.648 56.4445C267.245 56.7487 268.892 56.9008 270.591 56.9008C272.999 56.9008 274.849 56.5079 276.142 55.7221C277.435 54.9109 278.284 53.9223 278.69 52.7562C279.146 51.2352 278.703 49.7776 277.359 48.3834C277.106 48.1299 276.814 47.9017 276.485 47.6989C276.155 47.4708 275.787 47.2553 275.382 47.0525C274.571 46.6723 273.582 46.3554 272.416 46.1019C271.25 45.8484 269.868 45.6836 268.271 45.6076C265.99 45.5062 263.784 45.278 261.655 44.9231C259.551 44.5429 257.675 43.9598 256.027 43.174C254.354 42.3882 252.973 41.3615 251.883 40.094C250.818 38.8012 250.172 37.1915 249.943 35.2649C249.766 33.5158 249.893 31.8427 250.324 30.2457C251.135 27.3305 252.808 24.9349 255.343 23.0591C255.977 22.6281 256.623 22.2225 257.282 21.8423C257.967 21.462 258.676 21.1198 259.412 20.8156C260.882 20.2326 262.428 19.8016 264.051 19.5228C265.698 19.2186 267.359 19.0665 269.032 19.0665C270.02 19.0665 271.186 19.1172 272.53 19.2186C273.874 19.32 275.28 19.5228 276.751 19.827C278.221 20.1312 279.704 20.5748 281.2 21.1578C282.695 21.7155 284.089 22.4633 285.382 23.4013L282.759 30.3598C281.085 29.4725 279.488 28.7881 277.967 28.3064C276.472 27.7994 275.141 27.4065 273.975 27.1277C273.29 26.9756 272.619 26.8488 271.96 26.7474C271.326 26.646 270.717 26.57 270.134 26.5193C266.155 26.2911 263.049 26.7094 260.818 27.7741C258.613 28.8388 257.51 30.4485 257.51 32.6032C257.51 34.1242 257.929 35.2396 258.765 35.9494C259.602 36.6338 260.742 37.1281 262.187 37.4323C263.024 37.6098 264.089 37.7619 265.381 37.8886C266.7 37.99 268.068 38.1041 269.488 38.2308C270.933 38.3576 272.238 38.5097 273.405 38.6871C275.889 39.0674 277.98 39.6377 279.679 40.3982C281.377 41.1587 282.746 42.0459 283.785 43.0599C284.825 44.0739 285.572 45.202 286.029 46.4441C286.485 47.6609 286.713 48.941 286.713 50.2846ZM297.054 60.5512L296.408 1.91745L305.153 1.61325L304.925 24.7321C306.32 23.2112 307.803 22.0197 309.374 21.1578C310.946 20.2706 312.416 19.5988 313.785 19.1425C315.357 18.6355 316.916 18.2933 318.462 18.1159C324.191 18.1159 328.779 20.0805 332.227 24.0097C333.9 25.9109 335.218 28.2304 336.181 30.9681C337.17 33.6806 337.728 36.7479 337.855 40.1701C337.855 41.9699 337.829 43.8077 337.778 45.6836C337.753 47.5595 337.677 49.3973 337.55 51.1972C337.398 52.997 337.195 54.7081 336.942 56.3305C336.714 57.9528 336.397 59.4105 335.991 60.7033L327.322 60.0949C328.057 57.6613 328.577 55.2911 328.881 52.9843C329.21 50.6775 329.438 48.6115 329.565 46.7863C329.667 44.657 329.705 42.629 329.679 40.7024C329.553 37.99 329.084 35.6832 328.272 33.782C327.487 31.8807 326.498 30.3217 325.306 29.1049C324.14 27.9135 322.835 27.0516 321.39 26.5193C319.97 25.9616 318.576 25.6827 317.207 25.6827C315.788 25.7841 314.33 26.2024 312.834 26.9376C311.567 27.5459 310.211 28.4966 308.766 29.7894C307.321 31.0569 305.977 32.8567 304.735 35.1889L304.507 60.3991L297.054 60.5512Z" fill="black"/>
</svg>
