<svg width="210" height="40" viewBox="0 0 210 40" fill="none" xmlns="http://www.w3.org/2000/svg">
<path d="M27.4458 20.1973C27.4615 20.921 27.4379 21.6448 27.375 22.3686C27.3278 23.0924 27.2491 23.8083 27.139 24.5163C26.903 25.9481 26.5332 27.3091 26.0297 28.5994C25.542 29.8738 24.9047 31.046 24.118 32.116C23.3313 33.2174 22.4108 34.1536 21.3566 34.9245C20.3024 35.727 19.0909 36.3485 17.722 36.789C16.3531 37.2296 14.8427 37.4499 13.1906 37.4499C11.5227 37.4499 10.0594 37.1903 8.8007 36.671C7.54196 36.1361 6.44843 35.4202 5.5201 34.5233C4.59178 33.6107 3.80507 32.5644 3.15996 31.3843C2.51486 30.1885 2.0035 28.9455 1.62587 27.6553C1.23252 26.3494 0.941433 25.0277 0.752622 23.6903C0.563811 22.3371 0.453671 21.0469 0.422202 19.8196C0.406468 19.0329 0.406468 18.2147 0.422202 17.3651C0.437937 16.5154 0.469405 15.6265 0.516608 14.6981C0.595279 13.109 0.736888 11.2602 0.941433 9.15181C1.16171 7.04342 1.49213 4.79342 1.93269 2.40181L7.05419 3.13345C6.69231 4.69114 6.40122 6.19376 6.18094 7.64132C5.96066 9.08887 5.78759 10.4499 5.66171 11.7244C5.53584 12.9988 5.4493 14.1632 5.4021 15.2174C5.37063 16.2716 5.35489 17.1763 5.35489 17.9315C5.35489 18.3721 5.36276 18.8362 5.3785 19.324C5.40996 19.8118 5.44143 20.331 5.4729 20.8817C5.55157 21.9674 5.69318 23.0688 5.89773 24.1859C6.10227 25.303 6.40122 26.3966 6.79458 27.4665C7.1722 28.5522 7.6757 29.4962 8.30507 30.2987C8.93444 31.1168 9.70542 31.7855 10.618 32.3048C11.5306 32.8083 12.6163 33.06 13.875 33.06C16.5026 33.06 18.5795 31.9036 20.1058 29.5906C20.8453 28.4735 21.4038 27.1203 21.7815 25.5312C22.1748 23.942 22.3558 22.164 22.3243 20.1973C22.3086 18.6081 22.2142 16.9088 22.0411 15.0994C21.9152 13.5259 21.7185 11.7244 21.451 9.69464C21.1836 7.66492 20.8138 5.50932 20.3418 3.22786L25.3689 2.54342C25.8724 5.13957 26.2579 7.51544 26.5253 9.67104C26.7928 11.8109 26.9974 13.6675 27.139 15.241C27.2177 16.1536 27.2806 17.0268 27.3278 17.8607C27.3907 18.6789 27.4301 19.4577 27.4458 20.1973ZM41.4877 4.92716C41.4877 5.83974 41.1494 6.62646 40.4728 7.2873C39.812 7.9324 39.0174 8.25495 38.0891 8.25495C37.1765 8.25495 36.3898 7.9324 35.7289 7.2873C35.0838 6.62646 34.7613 5.83974 34.7613 4.92716C34.7613 3.99883 35.0838 3.20425 35.7289 2.54342C36.3898 1.86684 37.1765 1.52856 38.0891 1.52856C39.0174 1.52856 39.812 1.86684 40.4728 2.54342C41.1494 3.20425 41.4877 3.99883 41.4877 4.92716ZM35.4929 13.4237L40.3784 13.2348L40.1424 24.5635C40.0637 27.6789 40.0165 30.1256 40.0008 31.9036C39.9536 34.0749 39.93 35.782 39.93 37.0251H35.0917C35.1074 36.1754 35.1232 35.2471 35.1389 34.2401C35.1704 33.2174 35.194 32.1238 35.2097 30.9595C35.2412 28.9298 35.2884 26.4674 35.3513 23.5723L35.4929 13.4237ZM45.5934 13.3293L50.5261 12.1728L57.8189 21.1177L64.9701 12.0312L69.4308 13.7777L60.8163 24.7759L69.9028 35.9158L65.5602 37.6859L57.9605 28.4577L50.8565 37.5915L45.8766 36.2462L54.9159 24.7287L45.5934 13.3293Z" fill="#D81717"/>
<path d="M80.8293 35.0425C80.8293 35.8607 80.5304 36.5609 79.9325 37.1431C79.3503 37.741 78.6501 38.0399 77.832 38.0399C76.998 38.0399 76.2821 37.741 75.6842 37.1431C75.0863 36.5609 74.7874 35.8607 74.7874 35.0425C74.7874 34.1929 75.0785 33.477 75.6606 32.8948C76.2585 32.2969 76.9823 31.998 77.832 31.998C78.6659 31.998 79.3739 32.2969 79.9561 32.8948C80.5382 33.4927 80.8293 34.2086 80.8293 35.0425ZM88.0268 36.9306L89.2305 0.513695L94.47 0.608101L93.5967 23.0058L105.917 10.6151L109.551 13.5181L100.748 22.227L110.897 35.4202L106.743 38.4647L97.255 25.6964L93.3371 29.5198L93.1011 36.6238L88.0268 36.9306ZM138.438 21.3537L133.789 23.1002C133.773 21.7628 133.584 20.6772 133.223 19.8432C132.876 19.0093 132.412 18.38 131.83 17.9551C131.279 17.546 130.658 17.3572 129.966 17.3887C129.509 17.4674 129.045 17.6483 128.573 17.9315C128.085 18.2305 127.574 18.6238 127.039 19.1116C126.52 19.5994 126.001 20.1422 125.481 20.7401C125.214 21.039 124.954 21.3459 124.702 21.6605C124.451 21.9752 124.199 22.2899 123.947 22.6046C123.459 23.234 122.995 23.8712 122.555 24.5163C122.114 25.1457 121.721 25.72 121.375 26.2392C121.39 26.8843 121.406 27.6238 121.422 28.4577C121.438 29.2759 121.453 30.0862 121.469 30.8887C121.501 31.6754 121.524 32.3441 121.54 32.8948C121.571 33.8861 121.603 34.7829 121.634 35.5854C121.666 36.3721 121.705 37.0093 121.752 37.4971L116.678 38.1343L116.206 24.8939C116.174 23.9971 116.143 23.0373 116.112 22.0146C116.08 20.9761 116.049 20.0006 116.017 19.088C115.986 18.1597 115.962 17.428 115.946 16.8931C115.883 14.6745 115.836 13.0067 115.805 11.8896L121.186 11.7952C121.202 12.2829 121.209 12.7707 121.209 13.2584C121.209 13.7305 121.217 14.2182 121.233 14.7217C121.233 15.2252 121.233 15.713 121.233 16.185C121.233 16.6413 121.241 17.074 121.257 17.4831C121.272 17.9709 121.28 18.4586 121.28 18.9464C121.28 19.4184 121.28 19.8826 121.28 20.3389C121.737 19.6151 122.295 18.8205 122.956 17.9551C123.617 17.0897 124.356 16.2716 125.174 15.5006C126.008 14.7296 126.913 14.0609 127.889 13.4945C128.864 12.9123 129.91 12.5504 131.028 12.4088C132.255 12.3459 133.403 12.6133 134.473 13.2112C134.914 13.463 135.347 13.8013 135.771 14.2261C136.212 14.6352 136.621 15.1623 136.999 15.8074C137.361 16.4682 137.667 17.255 137.919 18.1675C138.171 19.0644 138.344 20.1265 138.438 21.3537ZM149.695 4.92716C149.695 5.83974 149.357 6.62646 148.681 7.2873C148.02 7.9324 147.225 8.25495 146.297 8.25495C145.384 8.25495 144.597 7.9324 143.937 7.2873C143.292 6.62646 142.969 5.83974 142.969 4.92716C142.969 3.99883 143.292 3.20425 143.937 2.54342C144.597 1.86684 145.384 1.52856 146.297 1.52856C147.225 1.52856 148.02 1.86684 148.681 2.54342C149.357 3.20425 149.695 3.99883 149.695 4.92716ZM143.701 13.4237L148.586 13.2348L148.35 24.5635C148.271 27.6789 148.224 30.1256 148.208 31.9036C148.161 34.0749 148.138 35.782 148.138 37.0251H143.299C143.315 36.1754 143.331 35.2471 143.347 34.2401C143.378 33.2174 143.402 32.1238 143.417 30.9595C143.449 28.9298 143.496 26.4674 143.559 23.5723L143.701 13.4237ZM178.063 31.2191C178.063 32.7139 177.764 33.9726 177.166 34.9953C176.569 36.0023 175.758 36.8284 174.736 37.4735C173.729 38.1029 172.564 38.567 171.242 38.866C169.921 39.1806 168.552 39.3695 167.136 39.4324C165.657 39.4009 164.194 39.2515 162.746 38.984C161.472 38.7637 160.063 38.3546 158.521 37.7567C156.979 37.1588 155.595 36.38 154.367 35.4202L156.657 31.8327C157.522 32.289 158.403 32.7296 159.3 33.1544C160.213 33.5793 161.141 33.949 162.085 34.2637C163.029 34.5941 163.997 34.8537 164.988 35.0425C165.979 35.2313 167.002 35.3258 168.056 35.3258C169.551 35.3258 170.7 35.0819 171.502 34.5941C172.305 34.0906 172.832 33.477 173.083 32.7532C173.367 31.8091 173.091 30.9044 172.257 30.039C172.1 29.8817 171.919 29.7401 171.715 29.6142C171.51 29.4726 171.282 29.3389 171.03 29.213C170.527 28.977 169.913 28.7803 169.189 28.623C168.465 28.4656 167.608 28.3633 166.617 28.3161C165.201 28.2532 163.832 28.1116 162.51 27.8913C161.204 27.6553 160.04 27.2934 159.017 26.8057C157.979 26.3179 157.121 25.6807 156.444 24.8939C155.784 24.0915 155.382 23.0924 155.241 21.8966C155.131 20.8109 155.209 19.7724 155.477 18.7812C155.98 16.9717 157.019 15.4848 158.592 14.3205C158.986 14.053 159.387 13.8013 159.796 13.5653C160.221 13.3293 160.661 13.1168 161.117 12.928C162.03 12.5661 162.99 12.2987 163.997 12.1256C165.02 11.9368 166.05 11.8424 167.089 11.8424C167.702 11.8424 168.426 11.8738 169.26 11.9368C170.094 11.9997 170.967 12.1256 171.88 12.3144C172.792 12.5032 173.713 12.7786 174.641 13.1404C175.569 13.4866 176.435 13.9508 177.237 14.5329L175.609 18.852C174.57 18.3013 173.579 17.8765 172.635 17.5775C171.707 17.2628 170.881 17.0189 170.157 16.8459C169.732 16.7515 169.315 16.6728 168.906 16.6098C168.513 16.5469 168.135 16.4997 167.773 16.4682C165.303 16.3266 163.375 16.5862 161.991 17.2471C160.622 17.9079 159.937 18.9071 159.937 20.2445C159.937 21.1885 160.197 21.8808 160.716 22.3214C161.236 22.7462 161.944 23.053 162.84 23.2418C163.36 23.352 164.02 23.4464 164.823 23.5251C165.641 23.588 166.491 23.6588 167.372 23.7375C168.269 23.8161 169.079 23.9105 169.803 24.0207C171.345 24.2567 172.643 24.6107 173.697 25.0827C174.751 25.5548 175.601 26.1055 176.246 26.7348C176.891 27.3642 177.355 28.0644 177.638 28.8354C177.922 29.5906 178.063 30.3852 178.063 31.2191ZM184.482 37.5915L184.081 1.19814L189.509 1.00932L189.367 15.359C190.233 14.4149 191.153 13.6754 192.129 13.1404C193.104 12.5897 194.017 12.1728 194.867 11.8896C195.842 11.5749 196.81 11.3625 197.77 11.2523C201.325 11.2523 204.173 12.4717 206.313 14.9105C207.352 16.0906 208.17 17.5303 208.768 19.2296C209.381 20.9132 209.728 22.817 209.806 24.9411C209.806 26.0583 209.791 27.199 209.759 28.3633C209.743 29.5277 209.696 30.6684 209.617 31.7855C209.523 32.9027 209.397 33.9647 209.24 34.9717C209.098 35.9787 208.902 36.8834 208.65 37.6859L203.269 37.3083C203.725 35.7978 204.047 34.3266 204.236 32.8948C204.441 31.463 204.582 30.1807 204.661 29.0478C204.724 27.7261 204.748 26.4674 204.732 25.2716C204.653 23.588 204.362 22.1562 203.859 20.9761C203.371 19.796 202.757 18.8284 202.018 18.0731C201.294 17.3336 200.484 16.7987 199.587 16.4682C198.706 16.1221 197.84 15.949 196.991 15.949C196.11 16.0119 195.205 16.2716 194.277 16.7279C193.49 17.1055 192.648 17.6955 191.751 18.498C190.854 19.2847 190.02 20.4018 189.249 21.8494L189.108 37.4971L184.482 37.5915Z" fill="black"/>
</svg>
