<svg width="19" height="20" viewBox="0 0 19 20" fill="none" xmlns="http://www.w3.org/2000/svg">
<path d="M15.9669 16.4281H13.283V12.2225C13.283 11.2196 13.2626 9.92904 11.8844 9.92904C10.4851 9.92904 10.2713 11.0203 10.2713 12.1485V16.4281H7.58743V7.77979H10.1656V8.95863H10.2004C10.5606 8.27897 11.4366 7.56155 12.7453 7.56155C15.4647 7.56155 15.9677 9.35133 15.9677 11.6811V16.4281H15.9669ZM4.55613 6.59642C3.6922 6.59642 2.99819 5.89712 2.99819 5.03697C2.99819 4.17757 3.69296 3.47903 4.55613 3.47903C5.41704 3.47903 6.11483 4.17757 6.11483 5.03697C6.11483 5.89712 5.41629 6.59642 4.55613 6.59642ZM5.90187 16.4281H3.2104V7.77979H5.90187V16.4281ZM17.3096 0.983154H1.86315C1.12383 0.983154 0.525726 1.56767 0.525726 2.28886V17.8018C0.525726 18.5238 1.12383 19.1075 1.86315 19.1075H17.3074C18.0459 19.1075 18.6501 18.5238 18.6501 17.8018V2.28886C18.6501 1.56767 18.0459 0.983154 17.3074 0.983154H17.3096Z" fill="#0A66C2"/>
</svg>
