<svg width="14" height="17" viewBox="0 0 14 17" fill="none" xmlns="http://www.w3.org/2000/svg">
<path fill-rule="evenodd" clip-rule="evenodd" d="M6.24017 16.06L6.24297 16.0609C6.42672 16.1411 6.52933 16.1224 6.52933 16.1224C6.52933 16.1224 6.63193 16.1411 6.81662 16.0609L6.81849 16.06L6.82408 16.0572L6.84087 16.0497C6.92941 16.0086 7.01681 15.965 7.10298 15.9191C7.27647 15.8296 7.51899 15.6952 7.80908 15.5152C8.38739 15.157 9.15692 14.6142 9.93018 13.8689C11.4748 12.3802 13.0587 10.053 13.0587 6.79483C13.0587 5.93739 12.8898 5.08834 12.5616 4.29617C12.2335 3.50399 11.7526 2.7842 11.1463 2.1779C10.54 1.5716 9.82017 1.09065 9.028 0.762519C8.23582 0.434389 7.38677 0.265503 6.52933 0.265503C5.67189 0.265503 4.82284 0.434389 4.03066 0.762519C3.23849 1.09065 2.5187 1.5716 1.9124 2.1779C1.30609 2.7842 0.825145 3.50399 0.497016 4.29617C0.168886 5.08834 -1.27769e-08 5.93739 0 6.79483C0 10.052 1.58383 12.3802 3.12941 13.8689C3.77652 14.4904 4.48714 15.0422 5.24958 15.5152C5.54489 15.6986 5.84868 15.8679 6.15996 16.0226L6.21779 16.0497L6.23458 16.0572L6.24017 16.06ZM6.52933 8.89355C7.08594 8.89355 7.61976 8.67243 8.01334 8.27885C8.40693 7.88526 8.62804 7.35145 8.62804 6.79483C8.62804 6.23822 8.40693 5.7044 8.01334 5.31082C7.61976 4.91723 7.08594 4.69612 6.52933 4.69612C5.97272 4.69612 5.4389 4.91723 5.04531 5.31082C4.65173 5.7044 4.43062 6.23822 4.43062 6.79483C4.43062 7.35145 4.65173 7.88526 5.04531 8.27885C5.4389 8.67243 5.97272 8.89355 6.52933 8.89355Z" fill="#334155"/>
</svg>
