<svg width="112" height="38" viewBox="0 0 112 38" fill="none" xmlns="http://www.w3.org/2000/svg">
<g clip-path="url(#clip0_769_54)">
<mask id="mask0_769_54" style="mask-type:luminance" maskUnits="userSpaceOnUse" x="0" y="0" width="112" height="38">
<path d="M111.75 0.503418H0V37.4965H111.75V0.503418Z" fill="white"/>
</mask>
<g mask="url(#mask0_769_54)">
<path d="M8.34719 10.3226C12.9474 10.3226 16.6943 14.0695 16.6943 18.7068C16.6943 23.3442 12.9474 27.0911 8.34719 27.0911C3.74695 27.0911 0 23.3812 0 18.7068C0 14.0325 3.74695 10.3226 8.34719 10.3226ZM73.7889 10.1371V24.8281C73.7889 25.9411 74.2341 26.2379 75.0874 26.4604L75.1244 26.646H70.413V24.8281C69.8565 26.1637 68.7064 26.9798 67.2225 26.9798C64.6998 26.9798 63.0304 24.6797 63.0304 21.2666C63.0304 19.3375 63.5868 17.7052 64.6256 16.4809C65.6272 15.2938 66.9999 14.6631 68.5209 14.6631C69.2629 14.6631 69.8936 14.8115 70.413 15.1454V13.1421C70.413 12.6969 70.3017 12.4001 70.079 12.1775C69.7822 11.9178 69.3 11.8066 68.558 11.8807H68.5209V11.6952L73.7889 10.1371ZM91.6705 14.7002V24.8281C91.6705 25.9411 92.1159 26.2379 92.9691 26.4604V26.646H88.2571V24.791C87.7006 26.1265 86.4768 26.9798 85.1042 26.9798C83.4719 26.9798 82.433 26.2378 82.0245 24.791L81.9505 24.42C81.8765 24.049 81.8395 23.678 81.8395 23.307V17.8907C81.8395 16.7035 81.5798 16.3325 80.5409 16.2584H80.5039V16.0729L85.2152 14.7002V23.2329C85.2152 24.4942 85.7716 25.1991 86.8105 25.1991C87.4409 25.1991 87.9604 24.8652 88.2571 24.3087V17.8907C88.2571 16.6664 88.0351 16.2954 87.1812 16.2212H87.1442V16.0357L91.6705 14.7002ZM57.6511 14.6631C58.9124 14.6631 60.1367 15.1083 60.9528 15.8874C61.8803 16.7777 62.3626 18.0762 62.3997 19.7827V19.8198H55.3139C55.1655 22.2683 56.6865 24.2716 58.6899 24.3458C60.1367 24.4571 61.398 23.5667 62.1029 22.1199L62.2884 22.1941C61.8803 24.9023 60.285 26.9427 57.5027 26.9427C54.3493 26.9427 52.5686 24.3087 52.4944 21.007V20.1537C52.6428 18.7068 53.088 17.4084 53.867 16.4438C54.3493 15.8503 54.9058 15.4051 55.5736 15.1083C56.13 14.8115 56.9462 14.6631 57.614 14.6631H57.6511ZM106.732 14.7002C108.736 14.7002 109.96 15.9616 109.96 18.1133V25.0136C109.96 25.8297 110.331 26.2379 111.258 26.4604H111.295V26.646H106.547V18.2245C106.547 16.889 106.065 16.2212 105.063 16.2212C104.247 16.2212 103.839 16.8148 103.616 17.3342C103.653 17.5939 103.69 17.8535 103.69 18.1133V25.1248C103.69 25.9781 103.95 26.2749 104.692 26.4604H104.729V26.646H100.315V18.2245C100.315 16.889 99.7951 16.2212 98.8302 16.2212C98.051 16.2212 97.6433 16.7777 97.4576 17.2229V25.162C97.4576 26.0152 97.7173 26.312 98.4595 26.4975H98.4965V26.683H94.0819V17.8535C94.0819 16.6664 93.7852 16.2954 92.7833 16.2212H92.7463V16.0357L97.4576 14.7373V16.7035C97.94 15.4422 99.0529 14.7002 100.462 14.7002C102.058 14.7002 103.171 15.4793 103.542 16.889C104.024 15.5535 105.248 14.7002 106.732 14.7002ZM39.0647 10.879L43.4795 21.2295L47.8942 10.879H52.6428L52.6057 11.0645L52.5518 11.0766C51.7337 11.263 51.3072 11.5689 51.3072 12.5856V25.1991C51.3814 26.0152 51.8266 26.2749 52.6057 26.4604H52.6428V26.646H46.5957V26.4604H46.6328C47.4119 26.2749 47.8571 26.0152 47.9313 25.1991V12.9195L42.1068 26.6088H41.7729L36.0969 13.2904V24.9023C36.0969 25.9411 36.542 26.2379 37.3953 26.4233H37.4324V26.6088H33.9451V26.4233H33.9823C34.8355 26.2379 35.2807 25.9411 35.2807 24.9023V12.5856C35.2807 11.5468 34.8355 11.25 33.9823 11.0645H33.9451V10.879H39.0647ZM79.539 14.7002V24.8281L79.5398 24.8966C79.5583 25.9534 80.0022 26.2425 80.8376 26.4604L80.8746 26.646H76.1633V17.8907C76.1633 16.7035 75.9035 16.3325 74.8648 16.2584H74.8277V16.0729L79.539 14.7002ZM21.7026 10.8049C23.9656 10.8049 25.8576 14.3663 25.8576 18.7068C25.8576 23.0844 24.0027 26.6088 21.7026 26.6088C19.4025 26.6088 17.5476 23.0844 17.5476 18.7068C17.5476 14.3293 19.4025 10.8049 21.7026 10.8049ZM28.0835 11.621C28.9369 11.621 29.5675 14.8115 29.5675 18.7068C29.5675 22.6022 28.8997 25.7926 28.0835 25.7926C27.2756 25.7926 26.613 22.6656 26.5998 18.8235L26.5997 18.7068C26.5997 14.8115 27.2674 11.621 28.0835 11.621ZM69.0774 15.3308C67.5935 15.3308 66.666 17.2971 66.666 20.3392C66.666 21.786 66.9257 23.0474 67.3709 23.9006C67.779 24.7168 68.3725 25.162 69.0403 25.162C69.7081 25.162 70.1903 24.8652 70.413 24.3087V16.1471C70.1533 15.6276 69.671 15.3308 69.0774 15.3308ZM57.614 15.368C56.2785 15.368 55.4994 16.9632 55.3881 19.1891V19.2262H59.4318C59.506 17.4826 59.2092 16.3325 58.6527 15.7761C58.3559 15.5163 58.0221 15.368 57.614 15.368ZM77.7217 10.2484C78.7969 10.2484 79.613 11.0645 79.613 12.1404C79.613 13.2163 78.7969 14.0325 77.7217 14.0325C76.6455 14.0325 75.8293 13.2163 75.8293 12.1404C75.8293 11.0645 76.6455 10.2484 77.7217 10.2484Z" fill="black"/>
</g>
</g>
<defs>
<clipPath id="clip0_769_54">
<rect width="111.75" height="36.9931" fill="white" transform="translate(0 0.503418)"/>
</clipPath>
</defs>
</svg>
