<svg width="81" height="36" viewBox="0 0 81 36" fill="none" xmlns="http://www.w3.org/2000/svg">
<path fill-rule="evenodd" clip-rule="evenodd" d="M34.5603 13.1916C36.0403 12.914 37.5202 12.6216 38.9854 12.3439C38.9706 18.8191 38.9706 25.2798 38.9854 31.7405C37.5202 31.448 36.0403 31.1411 34.5751 30.8634C34.5307 30.2934 34.5603 29.7233 34.5603 29.1532C34.5455 23.8473 34.5455 18.5268 34.5603 13.1916ZM70.3604 16.0565C69.1173 16.0858 67.8445 16.4658 66.8825 17.2551C66.0833 17.8983 65.5062 18.7753 65.1806 19.74C64.8254 20.7778 64.7514 21.9033 64.8846 22.9995C65.0326 24.2566 65.5357 25.499 66.4237 26.4199C67.1193 27.1507 68.0665 27.6623 69.0581 27.8815C70.3012 28.1593 71.648 28.1155 72.8171 27.5746C73.6755 27.1946 74.3859 26.5222 74.8891 25.7329C75.4515 24.8413 75.7326 23.8035 75.8215 22.751C75.9251 21.5671 75.7919 20.3539 75.3479 19.243C74.963 18.249 74.2675 17.3575 73.3351 16.7874C72.4472 16.2465 71.3964 16.0127 70.3604 16.0565ZM69.7093 11.9785C71.8552 11.8323 74.1047 12.227 75.9546 13.3525C76.9907 13.981 77.8786 14.8141 78.5742 15.7935C79.181 16.6705 79.6249 17.6498 79.9358 18.673C80.2613 19.7692 80.3798 20.924 80.3945 22.064C80.3945 24.1543 79.9062 26.2884 78.737 28.057C77.7158 29.6356 76.1618 30.8634 74.3859 31.5065C73.2315 31.9305 72.0179 32.135 70.7896 32.1643C68.4809 32.2081 66.0982 31.6527 64.2187 30.308C62.6203 29.1825 61.4511 27.5308 60.8591 25.689C60.4447 24.4612 60.282 23.1457 60.2967 21.8448C60.3115 19.5792 60.9776 17.2698 62.4131 15.4865C63.5822 14.0102 65.2546 12.9578 67.0749 12.4315C67.9185 12.1685 68.8065 12.0223 69.7093 11.9785ZM6.26358 12.8409C7.32914 12.227 8.55748 11.9346 9.7859 11.9492C11.7394 12.0223 13.619 13.0163 14.7585 14.5949C15.3357 13.8202 16.1349 13.2209 16.9933 12.797C18.932 11.8761 21.2851 11.73 23.283 12.5339C24.2155 12.914 25.059 13.4986 25.7102 14.2587C26.3761 15.0334 26.8201 15.9689 27.0866 16.9335C27.3677 17.9421 27.4417 18.9945 27.4122 20.0324C27.4122 23.935 27.4122 27.8524 27.4122 31.755C25.947 31.4627 24.4671 31.1557 22.987 30.878C22.9723 27.1361 22.987 23.3942 22.9723 19.6523C22.987 18.7899 22.6763 17.9129 22.0547 17.3136C21.3887 16.6412 20.4119 16.3196 19.4648 16.3343C18.6212 16.3196 17.7628 16.5681 17.0968 17.0944C16.3421 17.679 15.9425 18.6437 15.9425 19.5938C15.9425 23.6427 15.9425 27.7062 15.9425 31.755C14.4625 31.4627 12.9826 31.1557 11.5026 30.878C11.4878 29.6795 11.5026 28.4662 11.4878 27.253C11.4878 24.739 11.4878 22.2249 11.4878 19.6961C11.5174 18.8338 11.2215 17.9421 10.5999 17.3282C10.0523 16.7728 9.29745 16.4512 8.54271 16.3635C7.81753 16.2905 7.07755 16.3489 6.39677 16.6266C5.68639 16.919 5.07961 17.4744 4.75402 18.1614C4.53203 18.6291 4.42843 19.1407 4.42843 19.6523C4.42843 22.8095 4.42843 25.9668 4.42843 29.124C4.44323 30.001 4.41363 30.878 4.44323 31.755C2.96328 31.4773 1.49812 31.1557 0.0329659 30.8926C0.00336679 30.381 0.0477654 29.8549 0.00336679 29.3579C0.0181664 28.7732 0.0181664 28.1885 0.00336679 27.6039C0.0477654 27.063 0.00336679 26.5076 0.0181664 25.9668C0.0181664 24.4174 0.0181664 22.868 0.0181664 21.3186C0.00336679 20.3539 0.0329659 19.3745 0.00336679 18.4099C0.0181664 17.869 0.0181664 17.3136 0.00336679 16.7728C0.0329659 15.6911 0.0181664 14.6241 0.0181664 13.5425C0.0329659 13.4401 -0.0558314 13.2794 0.062565 13.2209C1.52772 12.9431 2.97807 12.6655 4.44323 12.3877C4.42843 13.0455 4.44323 13.7032 4.44323 14.361C4.96122 13.7471 5.568 13.2209 6.26358 12.8409ZM54.5397 12.2415C55.2501 12.1246 55.9753 12.0077 56.6857 11.8908C56.6857 13.4109 56.6857 14.931 56.6857 16.4512C55.9753 16.5828 55.2649 16.7143 54.5545 16.8312C53.4889 17.0066 52.379 17.3136 51.5798 18.0737C50.9286 18.673 50.6178 19.55 50.5586 20.4124C50.5142 21.0263 50.5438 21.6402 50.5438 22.2687C50.5438 25.426 50.5438 28.5832 50.5438 31.7405C49.3155 31.492 48.0871 31.2435 46.8439 31.0095C46.6071 30.9657 46.3852 30.9073 46.1335 30.878C46.0744 30.5419 46.1188 30.2056 46.1039 29.8695C46.1039 26.5076 46.1039 23.1604 46.1039 19.7985C46.1335 18.746 46.3112 17.679 46.7551 16.6997C47.1844 15.7204 47.9391 14.8872 48.827 14.2733C50.0111 13.4694 51.3874 12.987 52.7786 12.6216C53.3706 12.49 53.9329 12.3293 54.5397 12.2415ZM36.3363 3.86611C37.0466 3.77841 37.8162 3.85149 38.423 4.27538C39.1186 4.7285 39.5034 5.54705 39.5181 6.35098C39.5626 6.58484 39.5034 6.83333 39.5034 7.0672C39.4294 7.79804 39.0446 8.49965 38.4082 8.90896C37.7422 9.34746 36.8839 9.42054 36.0995 9.25971C35.4483 9.12821 34.8415 8.7189 34.4715 8.14884C34.0424 7.47647 33.9684 6.62869 34.1311 5.854C34.2791 5.12316 34.7823 4.45078 35.4631 4.12922C35.7443 3.99766 36.0403 3.90996 36.3363 3.86611Z" fill="#050038"/>
</svg>
