<svg width="108" height="40" viewBox="0 0 108 40" fill="none" xmlns="http://www.w3.org/2000/svg">
<g clip-path="url(#clip0_769_60)">
<path d="M37.5297 28.9791V16.85H37.7458L46.5747 28.9791H49.353V11.1672H46.266V23.2659H46.0499L37.221 11.1672H34.4427V28.9791H37.5297ZM58.0893 29.2541C62.1642 29.2541 64.6647 26.6266 64.6647 22.2271C64.6647 17.8581 62.1642 15.2001 58.0893 15.2001C54.0453 15.2001 51.514 17.8581 51.514 22.2271C51.5448 26.6266 54.0145 29.2541 58.0893 29.2541ZM58.0893 26.6877C55.9284 26.6877 54.6935 25.0685 54.6935 22.2271C54.6935 19.4163 55.9284 17.7666 58.0893 17.7666C60.2502 17.7666 61.485 19.4163 61.485 22.2271C61.485 25.0685 60.2502 26.6877 58.0893 26.6877ZM67.4739 12.1755V15.5667H65.313V18.011H67.4739V25.374C67.4739 28.0015 68.7087 29.0403 71.8574 29.0403C72.444 29.0403 73.0305 28.9791 73.4935 28.8875V26.5045C73.1231 26.535 72.8761 26.5656 72.444 26.5656C71.1475 26.5656 70.5609 25.9851 70.5609 24.6407V18.011H73.4935V15.5667H70.5609V12.1755H67.4739ZM75.3458 28.9791H78.4328V15.4751H75.3458V28.9791ZM76.8893 13.2448C77.908 13.2448 78.7415 12.4199 78.7415 11.4116C78.7415 10.3729 77.908 9.54797 76.8893 9.54797C75.8705 9.54797 75.037 10.3729 75.037 11.4116C75.037 12.4199 75.8705 13.2448 76.8893 13.2448ZM86.8909 29.2541C90.9659 29.2541 93.4667 26.6266 93.4667 22.2271C93.4667 17.8581 90.9659 15.2001 86.8909 15.2001C82.8472 15.2001 80.3159 17.8581 80.3159 22.2271C80.3159 26.6266 82.7855 29.2541 86.8909 29.2541ZM86.8909 26.6877C84.73 26.6877 83.4959 25.0685 83.4959 22.2271C83.4959 19.4163 84.73 17.7666 86.8909 17.7666C89.0217 17.7666 90.2867 19.4163 90.2867 22.2271C90.2559 25.0685 89.0217 26.6877 86.8909 26.6877ZM95.2875 28.9791H98.375V21.1272C98.375 19.1414 99.5484 17.8887 101.369 17.8887C103.253 17.8887 104.117 18.9275 104.117 20.9745V28.9791H107.204V20.2412C107.204 17.0027 105.537 15.2001 102.512 15.2001C100.474 15.2001 99.1159 16.1167 98.4675 17.6443H98.2517V15.4751H95.2567C95.2875 15.4751 95.2875 28.9791 95.2875 28.9791Z" fill="black"/>
<path fill-rule="evenodd" clip-rule="evenodd" d="M4.84342 10.0271C5.7419 10.752 6.06688 10.6947 7.74915 10.5803L23.5969 9.62654C23.941 9.62654 23.6542 9.28321 23.5395 9.24504L20.9014 7.35668C20.4044 6.97519 19.7162 6.5174 18.4354 6.63184L3.10381 7.75724C2.54942 7.81447 2.43472 8.10059 2.66412 8.31041L4.84342 10.0271ZM5.79925 13.7085V30.3415C5.79925 31.238 6.23893 31.5623 7.25212 31.505L24.6674 30.4941C25.6805 30.4369 25.7953 29.8265 25.7953 29.1016V12.5831C25.7953 11.8583 25.5085 11.4577 24.8968 11.515L6.69773 12.5831C6.02865 12.6403 5.79925 12.9836 5.79925 13.7085ZM22.9851 14.605C23.0998 15.101 22.9851 15.616 22.4881 15.6732L21.647 15.8449V28.1289C20.9205 28.5104 20.2515 28.7392 19.678 28.7392C18.7795 28.7392 18.55 28.4531 17.881 27.6139L12.3945 19.0112V27.3277L14.1341 27.7092C14.1341 27.7092 14.1341 28.7201 12.7386 28.7201L8.87704 28.949C8.76237 28.7201 8.87704 28.167 9.25937 28.0525L10.2725 27.7665V16.7795L8.87704 16.665C8.76237 16.1691 9.04912 15.4443 9.83287 15.387L13.9812 15.101L19.697 23.799V16.1119L18.2442 15.9402C18.1295 15.3299 18.5883 14.872 19.1427 14.8148L22.9851 14.605ZM1.82299 6.23129L17.7854 5.06774C19.7353 4.89606 20.2515 5.01051 21.4749 5.90702L26.56 9.47396C27.401 10.0844 27.6878 10.256 27.6878 10.9236V30.5132C27.6878 31.734 27.2481 32.4588 25.6805 32.5732L7.15653 33.6986C5.97131 33.7559 5.41692 33.5842 4.80519 32.8021L1.03921 27.9381C0.370124 27.0416 0.083374 26.374 0.083374 25.592V8.17689C0.083374 7.16594 0.542173 6.34573 1.82299 6.23129Z" fill="black"/>
</g>
<defs>
<clipPath id="clip0_769_60">
<rect width="107.5" height="40" fill="white" transform="translate(0.083374)"/>
</clipPath>
</defs>
</svg>
