<svg width="101" height="40" viewBox="0 0 101 40" fill="none" xmlns="http://www.w3.org/2000/svg">
<g clip-path="url(#clip0_769_42)">
<path d="M31.6042 27.0221L32.8277 24.1625C34.1672 25.1545 35.9144 25.6796 37.6621 25.6796C38.9436 25.6796 39.7589 25.1838 39.7589 24.4253C39.7297 22.3243 32.0412 23.9583 31.9827 18.6761C31.9534 15.9915 34.3418 13.9198 37.7205 13.9198C39.7297 13.9198 41.7396 14.416 43.1664 15.5542L42.0232 18.4748C40.7104 17.6306 39.0889 17.042 37.5455 17.042C36.4971 17.042 35.7979 17.5379 35.7979 18.1803C35.8271 20.252 43.5746 19.1139 43.6618 24.1625C43.6618 26.9055 41.3315 28.8315 38.0112 28.8315C35.5652 28.8315 33.323 28.248 31.6042 27.0221ZM80.3192 23.127C80.0104 23.6758 79.5612 24.1325 79.0177 24.4503C78.4742 24.7681 77.8558 24.9356 77.2262 24.9357C75.2639 24.9357 73.6732 23.3418 73.6732 21.3757C73.6732 19.4095 75.2639 17.8156 77.2262 17.8156C77.8558 17.8157 78.4742 17.9832 79.0177 18.301C79.5612 18.6189 80.0104 19.0755 80.3192 19.6243L83.7208 17.7363C82.4466 15.4595 80.0164 13.9198 77.2262 13.9198C73.1165 13.9198 69.785 17.2576 69.785 21.3757C69.785 25.4933 73.1165 28.8315 77.2262 28.8315C80.0164 28.8315 82.4466 27.2919 83.7208 25.015L80.3192 23.127ZM45.8689 28.5395H50.1211V7.71326H45.8693L45.8689 28.5395ZM85.8683 7.71326V28.5395H90.12V22.3L95.1583 28.5395H100.594L94.1867 21.1271L100.127 14.2105H94.9258L90.12 19.961V7.71326H85.8683ZM63.2212 14.2114V15.9043C62.5225 14.7368 60.8041 13.9198 58.9984 13.9198C55.2704 13.9198 52.329 17.2175 52.329 21.361C52.329 25.5046 55.2704 28.8315 58.9984 28.8315C60.8041 28.8315 62.5225 28.0145 63.2212 26.847V28.5395H67.4734V14.2114H63.2212ZM63.2212 23.1559C62.6097 24.1771 61.3282 24.9353 59.9014 24.9353C57.9387 24.9353 56.3481 23.3418 56.3481 21.3757C56.3481 19.4095 57.9387 17.8156 59.9014 17.8156C61.3282 17.8156 62.6097 18.6035 63.2212 19.6535V23.1559Z" fill="black"/>
<path d="M9.14856 7.25305C7.77058 7.25305 6.65366 8.37246 6.65366 9.75296C6.65333 10.081 6.7176 10.4057 6.8428 10.7089C6.968 11.012 7.15169 11.2875 7.38336 11.5196C7.61503 11.7518 7.89016 11.936 8.19303 12.0618C8.4959 12.1876 8.82056 12.2525 9.14856 12.2529H11.6439V9.75296C11.6444 9.09054 11.3818 8.45513 10.9139 7.98628C10.446 7.51746 9.81098 7.25372 9.14856 7.25305ZM9.14856 13.9195H2.49508C1.1171 13.9195 0.000183105 15.0389 0.000183105 16.4198C0.000183105 17.8003 1.1171 18.9197 2.49508 18.9197H9.14898C10.5266 18.9197 11.6439 17.8003 11.6439 16.4198C11.6439 15.0389 10.5266 13.9195 9.14856 13.9195Z" fill="#36C5F0"/>
<path d="M24.951 16.4198C24.951 15.0389 23.8336 13.9195 22.4556 13.9195C21.0776 13.9195 19.9607 15.0389 19.9607 16.4198V18.9197H22.4556C23.1181 18.919 23.7531 18.6553 24.221 18.1865C24.689 17.7177 24.9515 17.0822 24.951 16.4198ZM18.2975 16.4198V9.75296C18.2981 9.09054 18.0355 8.45513 17.5675 7.98628C17.0996 7.51746 16.4646 7.25372 15.8021 7.25305C14.4242 7.25305 13.3073 8.37246 13.3073 9.75296V16.4194C13.3073 17.8007 14.4242 18.9201 15.8021 18.9201C16.4646 18.9195 17.0996 18.6557 17.5675 18.1869C18.0355 17.7181 18.2981 17.0822 18.2975 16.4198Z" fill="#2EB67D"/>
<path d="M15.8021 32.253C16.4646 32.2523 17.0996 31.9886 17.5675 31.5197C18.0355 31.051 18.2981 30.4155 18.2975 29.7531C18.2981 29.0906 18.0355 28.4552 17.5675 27.9864C17.0996 27.5176 16.4646 27.2538 15.8021 27.2531H13.3073V29.7531C13.3073 31.1336 14.4242 32.253 15.8021 32.253ZM15.8021 25.5866H22.4561C23.8336 25.5866 24.951 24.4671 24.951 23.0862C24.9515 22.4238 24.689 21.7884 24.221 21.3196C23.7531 20.8507 23.1181 20.587 22.4556 20.5863H15.8021C14.4242 20.5863 13.3073 21.7057 13.3073 23.0862C13.307 23.4142 13.3712 23.739 13.4964 24.0421C13.6216 24.3452 13.8053 24.6207 14.037 24.8529C14.2686 25.0851 14.5438 25.2692 14.8466 25.3951C15.1495 25.5209 15.4742 25.5862 15.8021 25.5866Z" fill="#ECB22E"/>
<path d="M1.25886e-06 23.0862C-0.000328022 23.4142 0.0639432 23.739 0.189145 24.0421C0.314348 24.3452 0.498028 24.6207 0.729702 24.8529C0.961375 25.0851 1.2365 25.2692 1.53938 25.3951C1.84225 25.5209 2.16693 25.5858 2.4949 25.5861C3.15729 25.5855 3.79229 25.3217 4.26024 24.8529C4.72819 24.3841 4.99077 23.7486 4.99022 23.0862V20.5863H2.4949C1.11692 20.5863 1.25886e-06 21.7057 1.25886e-06 23.0862ZM6.65348 23.0862V29.7526C6.65348 31.1336 7.7704 32.253 9.14842 32.253C9.81075 32.2523 10.4458 31.9886 10.9138 31.5197C11.3817 31.051 11.6442 30.4155 11.6437 29.7531V23.0862C11.644 22.7582 11.5798 22.4334 11.4545 22.1302C11.3293 21.8271 11.1456 21.5516 10.9138 21.3194C10.6822 21.0873 10.4069 20.9031 10.104 20.7772C9.80108 20.6515 9.47633 20.5866 9.14842 20.5863C7.7704 20.5863 6.65348 21.7057 6.65348 23.0862Z" fill="#E01E5A"/>
</g>
<defs>
<clipPath id="clip0_769_42">
<rect width="100.833" height="40" fill="white"/>
</clipPath>
</defs>
</svg>
