<svg width="20" height="20" viewBox="0 0 20 20" fill="none" xmlns="http://www.w3.org/2000/svg">
<path d="M10.1866 19.1075C12.1953 19.1074 14.1472 18.4401 15.7357 17.2105C17.3241 15.9809 18.4593 14.2586 18.9628 12.3139M10.1866 19.1075C8.17778 19.1074 6.22592 18.4401 4.63746 17.2105C3.04899 15.9809 1.91387 14.2586 1.41034 12.3139M10.1866 19.1075C12.6887 19.1075 14.7177 15.0497 14.7177 10.0453C14.7177 5.041 12.6887 0.983155 10.1866 0.983155M10.1866 19.1075C7.68439 19.1075 5.65547 15.0497 5.65547 10.0453C5.65547 5.041 7.68439 0.983155 10.1866 0.983155M10.1866 0.983155C11.7938 0.982485 13.3723 1.40944 14.7601 2.22021C16.1479 3.03098 17.295 4.19637 18.0838 5.59681M10.1866 0.983155C8.57929 0.982485 7.00078 1.40944 5.61299 2.22021C4.22519 3.03098 3.07809 4.19637 2.28937 5.59681M18.0838 5.59681C15.8914 7.49577 13.087 8.53915 10.1866 8.53498C7.16785 8.53498 4.4069 7.42737 2.28937 5.59681M18.0838 5.59681C18.8499 6.95412 19.2512 8.48676 19.2487 10.0453C19.2487 10.8287 19.1491 11.5889 18.9628 12.3139M18.9628 12.3139C16.2775 13.8025 13.2568 14.5812 10.1866 14.5764C7.00272 14.5764 4.01119 13.7558 1.41034 12.3139M1.41034 12.3139C1.21978 11.5728 1.1237 10.8106 1.12438 10.0453C1.12438 8.42925 1.54728 6.91083 2.28937 5.59681" stroke="#7C3AED" stroke-width="1.13277" stroke-linecap="round" stroke-linejoin="round"/>
</svg>
