<svg width="161" height="30" viewBox="0 0 161 30" fill="none" xmlns="http://www.w3.org/2000/svg">
<path d="M21.2572 15.2214C21.2692 15.7743 21.2512 16.3272 21.2031 16.8801C21.1671 17.433 21.107 17.9799 21.0228 18.5207C20.8425 19.6145 20.5601 20.6541 20.1755 21.6397C19.8029 22.6133 19.3161 23.5087 18.7151 24.326C18.1142 25.1674 17.4111 25.8825 16.6058 26.4714C15.8005 27.0844 14.875 27.5592 13.8293 27.8957C12.7837 28.2323 11.6298 28.4005 10.3678 28.4005C9.09375 28.4005 7.97596 28.2022 7.01442 27.8056C6.05288 27.3969 5.21755 26.8501 4.50841 26.165C3.79928 25.4678 3.19832 24.6686 2.70553 23.7671C2.21274 22.8537 1.82211 21.9041 1.53365 20.9186C1.23317 19.921 1.01082 18.9113 0.866586 17.8897C0.722355 16.8561 0.638221 15.8705 0.614182 14.933C0.602163 14.332 0.602163 13.707 0.614182 13.058C0.626202 12.4089 0.65024 11.7299 0.686298 11.0207C0.746394 9.80678 0.854567 8.39452 1.01082 6.78395C1.17909 5.17337 1.43149 3.45462 1.76803 1.6277L5.68029 2.18659C5.40385 3.3765 5.18149 4.52433 5.01322 5.6301C4.84495 6.73587 4.71274 7.77553 4.61659 8.74909C4.52043 9.72265 4.45433 10.6121 4.41827 11.4174C4.39423 12.2226 4.38221 12.9138 4.38221 13.4907C4.38221 13.8272 4.38822 14.1818 4.40024 14.5544C4.42428 14.927 4.44832 15.3236 4.47236 15.7443C4.53245 16.5736 4.64062 17.415 4.79687 18.2683C4.95312 19.1217 5.18149 19.957 5.48197 20.7743C5.77043 21.6037 6.15505 22.3248 6.63582 22.9378C7.11659 23.5628 7.70553 24.0736 8.40264 24.4702C9.09976 24.8549 9.92909 25.0472 10.8906 25.0472C12.8978 25.0472 14.4844 24.1638 15.6502 22.3969C16.2151 21.5436 16.6418 20.5099 16.9303 19.296C17.2308 18.082 17.369 16.7238 17.3449 15.2214C17.3329 14.0075 17.2608 12.7094 17.1286 11.3272C17.0324 10.1253 16.8822 8.74909 16.6779 7.19861C16.4736 5.64813 16.1911 4.0015 15.8305 2.25871L19.6707 1.73587C20.0553 3.71904 20.3498 5.53395 20.5541 7.18058C20.7584 8.8152 20.9147 10.2335 21.0228 11.4354C21.0829 12.1325 21.131 12.7996 21.1671 13.4366C21.2151 14.0616 21.2452 14.6565 21.2572 15.2214ZM31.9836 3.55678C31.9836 4.2539 31.7252 4.85486 31.2084 5.35967C30.7036 5.85246 30.0966 6.09885 29.3875 6.09885C28.6904 6.09885 28.0894 5.85246 27.5846 5.35967C27.0918 4.85486 26.8454 4.2539 26.8454 3.55678C26.8454 2.84765 27.0918 2.24068 27.5846 1.73587C28.0894 1.21904 28.6904 0.960631 29.3875 0.960631C30.0966 0.960631 30.7036 1.21904 31.2084 1.73587C31.7252 2.24068 31.9836 2.84765 31.9836 3.55678ZM27.4043 10.0472L31.1363 9.90294L30.956 18.5568C30.8959 20.9366 30.8599 22.8056 30.8478 24.1638C30.8118 25.8224 30.7937 27.1265 30.7937 28.076H27.0978C27.1099 27.427 27.1219 26.7178 27.1339 25.9486C27.1579 25.1674 27.176 24.332 27.188 23.4426C27.212 21.8921 27.2481 20.0111 27.2961 17.7996L27.4043 10.0472ZM35.1199 9.97505L38.888 9.09164L44.4589 15.9246L49.9216 8.98347L53.3291 10.3176L46.7486 18.719L53.6897 27.2287L50.3724 28.5808L44.5671 21.5315L39.1404 28.5087L35.3363 27.4811L42.2413 18.683L35.1199 9.97505Z" fill="#D81717"/>
<path d="M62.0363 26.5616C62.0363 27.1866 61.8079 27.7214 61.3512 28.1662C60.9065 28.6229 60.3716 28.8513 59.7466 28.8513C59.1096 28.8513 58.5627 28.6229 58.106 28.1662C57.6493 27.7214 57.4209 27.1866 57.4209 26.5616C57.4209 25.9126 57.6433 25.3657 58.088 24.921C58.5447 24.4642 59.0976 24.2359 59.7466 24.2359C60.3836 24.2359 60.9245 24.4642 61.3692 24.921C61.8139 25.3777 62.0363 25.9246 62.0363 26.5616ZM67.5344 28.0039L68.4538 0.18539L72.4562 0.257506L71.7892 17.3669L81.2002 7.90174L83.9767 10.1193L77.2519 16.7719L85.0043 26.8501L81.8312 29.1758L74.5836 19.4222L71.5909 22.3428L71.4106 27.7695L67.5344 28.0039ZM106.043 16.1049L102.492 17.439C102.48 16.4174 102.335 15.588 102.059 14.951C101.794 14.314 101.44 13.8332 100.995 13.5087C100.575 13.1962 100.1 13.052 99.5709 13.076C99.2223 13.1361 98.8678 13.2743 98.5072 13.4907C98.1346 13.719 97.744 14.0195 97.3353 14.3921C96.9387 14.7647 96.5421 15.1794 96.1454 15.6361C95.9411 15.8645 95.7428 16.0989 95.5505 16.3392C95.3582 16.5796 95.1659 16.82 94.9735 17.0604C94.601 17.5412 94.2464 18.0279 93.9098 18.5207C93.5733 19.0015 93.2728 19.4402 93.0084 19.8368C93.0204 20.3296 93.0324 20.8945 93.0445 21.5315C93.0565 22.1565 93.0685 22.7755 93.0805 23.3885C93.1046 23.9895 93.1226 24.5003 93.1346 24.921C93.1586 25.6782 93.1827 26.3633 93.2067 26.9763C93.2308 27.5772 93.2608 28.064 93.2969 28.4366L89.4207 28.9234L89.0601 18.8092C89.036 18.1241 89.012 17.3909 88.988 16.6097C88.9639 15.8164 88.9399 15.0712 88.9159 14.3741C88.8918 13.665 88.8738 13.1061 88.8618 12.6974C88.8137 11.0027 88.7776 9.72866 88.7536 8.87529L92.8642 8.80318C92.8762 9.17577 92.8822 9.54837 92.8822 9.92097C92.8822 10.2815 92.8882 10.6541 92.9002 11.0388C92.9002 11.4234 92.9002 11.796 92.9002 12.1565C92.9002 12.5051 92.9062 12.8356 92.9183 13.1481C92.9303 13.5207 92.9363 13.8933 92.9363 14.2659C92.9363 14.6265 92.9363 14.9811 92.9363 15.3296C93.2848 14.7767 93.7115 14.1698 94.2163 13.5087C94.7211 12.8476 95.286 12.2226 95.911 11.6337C96.5481 11.0448 97.2392 10.5339 97.9844 10.1013C98.7296 9.65654 99.5288 9.3801 100.382 9.27193C101.32 9.22385 102.197 9.42818 103.014 9.88491C103.351 10.0772 103.681 10.3356 104.006 10.6601C104.343 10.9726 104.655 11.3753 104.943 11.8681C105.22 12.3729 105.454 12.9739 105.647 13.671C105.839 14.3561 105.971 15.1674 106.043 16.1049ZM114.642 3.55678C114.642 4.2539 114.384 4.85486 113.867 5.35967C113.362 5.85246 112.755 6.09885 112.046 6.09885C111.349 6.09885 110.748 5.85246 110.243 5.35967C109.75 4.85486 109.504 4.2539 109.504 3.55678C109.504 2.84765 109.75 2.24068 110.243 1.73587C110.748 1.21904 111.349 0.960631 112.046 0.960631C112.755 0.960631 113.362 1.21904 113.867 1.73587C114.384 2.24068 114.642 2.84765 114.642 3.55678ZM110.063 10.0472L113.795 9.90294L113.615 18.5568C113.555 20.9366 113.518 22.8056 113.506 24.1638C113.47 25.8224 113.452 27.1265 113.452 28.076H109.756C109.768 27.427 109.781 26.7178 109.793 25.9486C109.817 25.1674 109.835 24.332 109.847 23.4426C109.871 21.8921 109.907 20.0111 109.955 17.7996L110.063 10.0472ZM136.312 23.6409C136.312 24.7827 136.084 25.7443 135.627 26.5255C135.17 27.2948 134.551 27.9258 133.77 28.4186C133.001 28.8993 132.112 29.2539 131.102 29.4823C130.092 29.7226 129.047 29.8669 127.965 29.915C126.835 29.8909 125.717 29.7767 124.612 29.5724C123.638 29.4041 122.562 29.0916 121.384 28.6349C120.206 28.1782 119.149 27.5832 118.211 26.8501L119.96 24.1097C120.621 24.4582 121.294 24.7948 121.979 25.1193C122.676 25.4438 123.386 25.7263 124.107 25.9666C124.828 26.219 125.567 26.4174 126.324 26.5616C127.081 26.7058 127.863 26.7779 128.668 26.7779C129.81 26.7779 130.687 26.5916 131.3 26.219C131.913 25.8344 132.316 25.3657 132.508 24.8128C132.725 24.0916 132.514 23.4005 131.877 22.7395C131.757 22.6193 131.619 22.5111 131.462 22.415C131.306 22.3068 131.132 22.2046 130.94 22.1085C130.555 21.9282 130.086 21.7779 129.533 21.6577C128.981 21.5376 128.325 21.4594 127.568 21.4234C126.487 21.3753 125.441 21.2671 124.431 21.0988C123.434 20.9186 122.544 20.6421 121.763 20.2695C120.97 19.8969 120.315 19.4101 119.798 18.8092C119.293 18.1962 118.987 17.433 118.878 16.5195C118.794 15.6902 118.854 14.8969 119.059 14.1397C119.443 12.7575 120.237 11.6217 121.438 10.7323C121.739 10.5279 122.045 10.3356 122.358 10.1553C122.682 9.97505 123.019 9.81279 123.368 9.66856C124.065 9.39212 124.798 9.18779 125.567 9.05558C126.348 8.91135 127.136 8.83924 127.929 8.83924C128.398 8.83924 128.95 8.86327 129.587 8.91135C130.225 8.95943 130.892 9.05558 131.589 9.19981C132.286 9.34404 132.989 9.55438 133.698 9.83082C134.407 10.0952 135.068 10.4498 135.681 10.8945L134.437 14.1938C133.644 13.7731 132.887 13.4486 132.166 13.2202C131.456 12.9799 130.825 12.7936 130.273 12.6614C129.948 12.5892 129.63 12.5291 129.317 12.4811C129.017 12.433 128.728 12.3969 128.452 12.3729C126.565 12.2647 125.092 12.463 124.035 12.9678C122.989 13.4726 122.466 14.2359 122.466 15.2575C122.466 15.9787 122.664 16.5075 123.061 16.844C123.458 17.1686 123.999 17.4029 124.684 17.5472C125.08 17.6313 125.585 17.7034 126.198 17.7635C126.823 17.8116 127.472 17.8657 128.145 17.9258C128.83 17.9859 129.449 18.058 130.002 18.1421C131.18 18.3224 132.172 18.5928 132.977 18.9534C133.782 19.314 134.431 19.7347 134.924 20.2154C135.417 20.6962 135.771 21.2311 135.988 21.82C136.204 22.3969 136.312 23.0039 136.312 23.6409ZM141.215 28.5087L140.909 0.708227L145.056 0.563996L144.947 11.5255C145.608 10.8044 146.312 10.2395 147.057 9.83082C147.802 9.41015 148.499 9.09164 149.148 8.87529C149.893 8.63491 150.632 8.47265 151.366 8.38851C154.082 8.38851 156.257 9.32 157.892 11.183C158.685 12.0844 159.31 13.1842 159.767 14.4823C160.236 15.7683 160.5 17.2226 160.56 18.8452C160.56 19.6986 160.548 20.57 160.524 21.4594C160.512 22.3488 160.476 23.2202 160.416 24.0736C160.344 24.927 160.248 25.7383 160.128 26.5075C160.019 27.2767 159.869 27.9678 159.677 28.5808L155.566 28.2924C155.915 27.1385 156.161 26.0147 156.306 24.921C156.462 23.8272 156.57 22.8476 156.63 21.9823C156.678 20.9726 156.696 20.0111 156.684 19.0976C156.624 17.8116 156.402 16.7178 156.017 15.8164C155.644 14.915 155.176 14.1758 154.611 13.5989C154.058 13.0339 153.439 12.6253 152.754 12.3729C152.081 12.1085 151.42 11.9763 150.771 11.9763C150.098 12.0243 149.406 12.2226 148.697 12.5712C148.096 12.8597 147.453 13.3104 146.768 13.9234C146.083 14.5243 145.446 15.3777 144.857 16.4835L144.749 28.4366L141.215 28.5087Z" fill="black"/>
</svg>
